<svg xmlns="http://www.w3.org/2000/svg" xml:space="preserve" style="fill-rule:evenodd;clip-rule:evenodd;stroke-linejoin:round;stroke-miterlimit:2" viewBox="0 0 40 20"><path d="M5 25a20 20 0 0 1 1.52-7.65l8.32 3.44A11.02 11.02 0 0 0 14 25H5Z" style="fill:#2a363b;fill-rule:nonzero" transform="translate(-5 -5)"/><path d="M6.52 17.35a20 20 0 0 1 4.34-6.5l6.36 6.37a11 11 0 0 0-2.38 3.57l-8.32-3.44Z" style="fill:#019875;fill-rule:nonzero" transform="translate(-5 -5)"/><path d="M10.86 10.86a20 20 0 0 1 6.49-4.34l3.44 8.32a11 11 0 0 0-3.57 2.38l-6.36-6.36Z" style="fill:#99b898;fill-rule:nonzero" transform="translate(-5 -5)"/><path d="M17.35 6.52A20 20 0 0 1 25 5v9c-1.45 0-2.88.29-4.21.84l-3.44-8.32Z" style="fill:#fecea8;fill-rule:nonzero" transform="translate(-5 -5)"/><path d="M25 5a20 20 0 0 1 7.65 1.52l-3.44 8.32A11.02 11.02 0 0 0 25 14V5Z" style="fill:#ff847c;fill-rule:nonzero" transform="translate(-5 -5)"/><path d="M32.65 6.52a20 20 0 0 1 6.5 4.34l-6.37 6.36a11 11 0 0 0-3.57-2.38l3.44-8.32Z" style="fill:#e84a5f;fill-rule:nonzero" transform="translate(-5 -5)"/><path d="M39.14 10.86a20 20 0 0 1 4.34 6.49l-8.32 3.44a11 11 0 0 0-2.38-3.57l6.36-6.36Z" style="fill:#c0392b;fill-rule:nonzero" transform="translate(-5 -5)"/><path d="M43.48 17.35A20 20 0 0 1 45 25h-9c0-1.45-.28-2.88-.84-4.21l8.32-3.44Z" style="fill:#96281b;fill-rule:nonzero" transform="translate(-5 -5)"/></svg>