<svg xmlns="http://www.w3.org/2000/svg" width="760" height="630.7" class="svglite" viewBox="0 0 570 473"><defs><style><![CDATA[
    .svglite line, .svglite polyline, .svglite polygon, .svglite path, .svglite rect, .svglite circle {
      fill: none;
      stroke: #000000;
      stroke-linecap: round;
      stroke-linejoin: round;
      stroke-miterlimit: 10.00;
    }
    .svglite text {
      white-space: pre;
    }
  ]]></style></defs><rect width="100%" height="100%" style="stroke: none; fill: none;"/><defs><clipPath id="cpMC4wMHw1NzAuMDB8MC4wMHw0NzMuMDA="><path d="M0 0h570v473H0z"/></clipPath></defs><g clip-path="url(#cpMC4wMHw1NzAuMDB8MC4wMHw0NzMuMDA=)"><path d="m26.4 48.4.5.2 4.2 1.9.5.2.5-.6 4.2-4.7.5-.6.5-2.4 4.1-18.6.5-2.3.6 2.4 4.1 19 .5 2.3.5-.2 4.2-1.9.5-.3.5-.2 4.1-1.8.6-.2.5.8 4.1 6.7.5.9.5.7 4.2 5.8.5.7.5 1.2 4.2 9.7.5 1.2.5-.3 4.1-1.8.5-.2.6.3 4.1 3 .5.4h.5l4.2.5h.5l.5-.1 4.1-1.3.6-.2.5-.2 4.1-1.8.5-.2.5.6 4.2 5.2.5.6.5-.4 4.2-3.4.5-.4h.5l4.1.3h.5l.6-.7 4.1-5.8.5-.7.5-1.6 4.2-12.7.5-1.6h.5l4.1-.3.6-.1.5.9 4.1 6.8.5.9.5 1.9 4.2 15.7.5 2h.5l4.2-.3.5-.1.5-.2 4.1-1.8.5-.3.6.1 4.1.5h.5l.5 1.2 4.2 9.5.5 1.2.5.6 4.1 4.3.6.6.5.3 4.1 2.4.5.3.5.1 4.2 1.4.5.1.5.1 4.2.2h.5l.5.5 4.1 4.4.5.5H191.4l.5-.1.5.1 4.2.2h.5l.5.3 4.1 2.5.6.3.5-.2 4.1-1.5.5-.2.6-.3 4.1-2.3.5-.2.5-.2 4.2-.8.5-.1.5.4 4.1 3.2.5.4.6.1 4.1.8.5.1.5-.1 4.2-.6.5-.1.5.2 4.1 1.1.6.2.5.1 4.1.8.5.1.6-.1 4.1-.8.5-.1.5.1 4.2 1.1.5.1.5-.1 4.1-1.4.5-.2.6-.3 4.1-2.3.5-.3.5-.3L269 97l.5-.2.5.2 4.1 1.2.6.1h.5l4.1-.4h.5l.6-.1 4.1-.2.5-.1.5.3 4.2 1.7.5.2.5.2 4.1 1.9.5.2.6-.3 4.1-3 .5-.3h.5l4.2.1h.5l.5.1 4.1.6.6.1.5.1 4.1.4.5.1.6.4 4.1 3.3.5.4.5.2 4.2.9.5.1.5.3 4.1 1.7.5.2.6-.1 4.1-.9.5-.1.5-.3 4.2-2 .5-.2.5.2 4.1 2.3.6.3h.5l4.1-.3.5-.1H357.4l.5-.2 4.2-1.4.5-.2.5-.3 4.1-2.4.5-.3.6.1 4.1.7.5.1.5-.8 4.2-6 .5-.7.5-.7 4.1-5.3.6-.6.5-.5 4.1-3.5.5-.5.6-.5 4.1-4.6.5-.6.5-.1 4.2-1.5.5-.1.5-.2 4.1-1.3.5-.2h.6l4.1-.3.5-.1.5.3 4.2 2.2.5.3.5-.2 4.1-1.7.6-.2.5-.2 4.1-1.5.5-.2h.6l4.1.1h.5l.5-.2 4.2-2.1.5-.3.5-.2 4.1-1.6.5-.2h.6l4.1-.6.5-.1.5-.2 4.2-1.7.5-.2.5-.1 4.1-.2.6-.1.5-.1 4.1-.9.5-.2h.6l4.1-.2.5-.1.5-.3 4.2-2.7.5-.4.5-.1 4.1-.7.5-.1.6-.2 4.1-1.4.5-.2h.5l4.2-.1.5-.1.5-.1 4.1-.6.6-.1.5-.1 4.1-.5h.5l.6-.1 4.1-.5.5-.1h.5l4.2-.2h.5l.5-.1 4.1-.9.5-.1.6-.2 4.1-1.3.5-.2h5.2l.5-.7 4.1-5.4.6-.7h.5l4.1-.1.5-.1.6.2 4.1.8.5.1h.5l4.2.1h.5l.5 404.9-.5-301.9-.5.1-4.2 1-.5.2-.5-.2-4.1-1.5-.6-.2-.5.3-4.1 2.1-.5.2-.6.5-4.1 3.7-.5.5-.5-.1-4.2-.9-.5-.1-.5.3-4.1 1.8-.6.2h-.5l-4.1-.4-.5-.1-.5-.1-4.2-1.3-.5-.2-.5-.1-4.1-1.3-.6-.2-.5.1-4.1.1h-.5l-.6.2-4.1 1.4-.5.2-.5-.2-4.2-1.8-.5-.2-.5.1-4.1 1.2-.6.2h-.5l-4.1.4-.5.1-.5.1-4.2 1.2-.5.1-.5.1-4.1.1h-.6l-.5.2-4.1 1.2-.5.2-.6.1-4.1.9-.5.1-.5.3-4.2 2.5-.5.3h-.5l-4.1.1-.6.1-.5.2-4.1 2-.5.2-.5.3-4.2 2-.5.2-.5-.1-4.1-1-.6-.1-.5-.1-4.1-.5h-.5l-.6-.1-4.1-.2-.5-.1h-.5l-4.2-.8h-.5l-.5-.1-4.1-.5-.6-.1-.5.2-4.1 1.2-.5.2-.5.2-4.2 2-.5.2-.5.4-4.1 2.9-.6.3-.5.3-4.1 2.1-.5.3-.6 1.1-4.1 8.9-.5 1.1-.5-.5-4.2-3.6-.5-.5-.5-.2-4.1-1.9-.6-.2-.5.1-4.1.8-.5.1-.5-.2-4.2-1-.5-.1-.5.1-4.1.7-.6.1-.5-.1-4.1-.6-.5-.1-.6-.3-4.1-2.4-.5-.3-.5.2-4.2 1.5-.5.2h-.5l-4.1-.2-.6-.1-.5-.3-4.1-2.3-.5-.3-.5-.2-4.2-1.6-.5-.2-.5-.5-4.1-3.9-.6-.4-.5-.3-4.1-1.6-.5-.2h-.6l-4.1.4-.5.1-.5-.2-4.2-1.2-.5-.1-.5.2-4.1 1.7-.6.2-.5-.2-4.1-1.6-.5-.2-.5-.3-4.2-2.8-.5-.3-.5-.2-4.1-1.5-.6-.1-.5-.1-4.1-.1h-.5l-.6-.4-4.1-3.2-.5-.4h-.5l-4.2-.4h-1l-4.1.3-.6.1-.5-.2-4.1-1-.5-.1-.5-.5-4.2-3.8-.5-.5-.5-.1-4.1-.7-.6-.1-.5-.3-4.1-2.5-.5-.3-.6-.4-4.1-2.5-.5-.4-.5-.1-4.2-.7-.5-.1-.5-.2-4.1-1.7-.6-.2-.5-.8-4.1-6.4-.5-.8-.5-.1-4.2-1-.5-.2-.5.3-4.1 1.9-.6.2-.5.2-4.1 1.1-.5.2-.6-.5-4.1-4-.5-.5-.5-.1-4.2-1.2-.5-.2-.5-.1-4.1-.5-.6-.1-.5-.7-4.1-5.2-.5-.6-.5-.2-4.2-1.4-.5-.2-.5-.3-4.2-2.4-.5-.3-.5-.3-4.1-3-.5-.3-.6-.2-4.1-1.6-.5-.2-.5-1-4.2-8.4-.5-1h-.5l-4.1.2h-.6l-.5-.1-4.1-.6h-.5l-.5.1-4.2 1-.5.2-.5-1.7-4.2-13.7-.5-1.7-.5-.9-4.1-6.8-.5-.9-.6-.1-4.1-.8-.5-.1-.5 2.1-4.2 16.3-.5 2-.5 1-4.1 7.8-.6 1-.5-.1-4.1-.8-.5-.1-.5.5-4.2 3.7-.5.5-.5-1-4.2-8-.5-1-.5.2-4.1 1.4-.5.1-.6.2-4.1 1-.5.1-.5-.1-4.2-1.1-.5-.1-.5-.5-4.1-3.8-.6-.5h-.5l-4.1.4H73l-.5-1.5-4.2-12.2-.5-1.6-.5-.8-4.2-6.9-.5-.8-.5-1-4.1-7.8-.5-1-.6.3-4.1 2.2-.5.2-.5.1-4.2.7-.5.1-.5-2.4-4.1-19.2-.6-2.4-.5 2.3-4.1 17.7-.5 2.2-.5.5-4.2 4.3-.5.6-.5-.4-4.2-2.8-.5-.4-.5 387.3z" style="stroke-width: 0.00; stroke: none; stroke-linecap: butt; fill: #F00000;"/><path d="m26.4 48.4.5.2 4.2 1.9.5.2.5-.6 4.2-4.7.5-.6.5-2.4 4.1-18.6.5-2.3.6 2.4 4.1 19 .5 2.3.5-.2 4.2-1.9.5-.3.5-.2 4.1-1.8.6-.2.5.8 4.1 6.7.5.9.5.7 4.2 5.8.5.7.5 1.2 4.2 9.7.5 1.2.5-.3 4.1-1.8.5-.2.6.3 4.1 3 .5.4h.5l4.2.5h.5l.5-.1 4.1-1.3.6-.2.5-.2 4.1-1.8.5-.2.5.6 4.2 5.2.5.6.5-.4 4.2-3.4.5-.4h.5l4.1.3h.5l.6-.7 4.1-5.8.5-.7.5-1.6 4.2-12.7.5-1.6h.5l4.1-.3.6-.1.5.9 4.1 6.8.5.9.5 1.9 4.2 15.7.5 2h.5l4.2-.3.5-.1.5-.2 4.1-1.8.5-.3.6.1 4.1.5h.5l.5 1.2 4.2 9.5.5 1.2.5.6 4.1 4.3.6.6.5.3 4.1 2.4.5.3.5.1 4.2 1.4.5.1.5.1 4.2.2h.5l.5.5 4.1 4.4.5.5H191.4l.5-.1.5.1 4.2.2h.5l.5.3 4.1 2.5.6.3.5-.2 4.1-1.5.5-.2.6-.3 4.1-2.3.5-.2.5-.2 4.2-.8.5-.1.5.4 4.1 3.2.5.4.6.1 4.1.8.5.1.5-.1 4.2-.6.5-.1.5.2 4.1 1.1.6.2.5.1 4.1.8.5.1.6-.1 4.1-.8.5-.1.5.1 4.2 1.1.5.1.5-.1 4.1-1.4.5-.2.6-.3 4.1-2.3.5-.3.5-.3L269 97l.5-.2.5.2 4.1 1.2.6.1h.5l4.1-.4h.5l.6-.1 4.1-.2.5-.1.5.3 4.2 1.7.5.2.5.2 4.1 1.9.5.2.6-.3 4.1-3 .5-.3h.5l4.2.1h.5l.5.1 4.1.6.6.1.5.1 4.1.4.5.1.6.4 4.1 3.3.5.4.5.2 4.2.9.5.1.5.3 4.1 1.7.5.2.6-.1 4.1-.9.5-.1.5-.3 4.2-2 .5-.2.5.2 4.1 2.3.6.3h.5l4.1-.3.5-.1H357.4l.5-.2 4.2-1.4.5-.2.5-.3 4.1-2.4.5-.3.6.1 4.1.7.5.1.5-.8 4.2-6 .5-.7.5-.7 4.1-5.3.6-.6.5-.5 4.1-3.5.5-.5.6-.5 4.1-4.6.5-.6.5-.1 4.2-1.5.5-.1.5-.2 4.1-1.3.5-.2h.6l4.1-.3.5-.1.5.3 4.2 2.2.5.3.5-.2 4.1-1.7.6-.2.5-.2 4.1-1.5.5-.2h.6l4.1.1h.5l.5-.2 4.2-2.1.5-.3.5-.2 4.1-1.6.5-.2h.6l4.1-.6.5-.1.5-.2 4.2-1.7.5-.2.5-.1 4.1-.2.6-.1.5-.1 4.1-.9.5-.2h.6l4.1-.2.5-.1.5-.3 4.2-2.7.5-.4.5-.1 4.1-.7.5-.1.6-.2 4.1-1.4.5-.2h.5l4.2-.1.5-.1.5-.1 4.1-.6.6-.1.5-.1 4.1-.5h.5l.6-.1 4.1-.5.5-.1h.5l4.2-.2h.5l.5-.1 4.1-.9.5-.1.6-.2 4.1-1.3.5-.2h5.2l.5-.7 4.1-5.4.6-.7h.5l4.1-.1.5-.1.6.2 4.1.8.5.1h.5l4.2.1h.5" style="stroke-width: 1.07; stroke: none; stroke-linecap: butt;"/><path d="m26.4 64.2.5.4 4.2 2.8.5.4.5-.6 4.2-4.3.5-.5.5-2.2 4.1-17.7.5-2.3.6 2.4 4.1 19.2.5 2.4.5-.1 4.2-.7.5-.1.5-.2 4.1-2.2.6-.3.5 1 4.1 7.8.5 1 .5.8 4.2 6.9.5.8.5 1.6 4.2 12.2.5 1.5h.5l4.1-.4h.5l.6.5 4.1 3.8.5.5.5.1 4.2 1.1.5.1.5-.1 4.1-1 .6-.2.5-.1 4.1-1.4.5-.2.5 1 4.2 8 .5 1 .5-.5 4.2-3.7.5-.5.5.1 4.1.8.5.1.6-1 4.1-7.8.5-1 .5-2 4.2-16.3.5-2.1.5.1 4.1.8.6.1.5.9 4.1 6.8.5.9.5 1.7 4.2 13.7.5 1.7.5-.2 4.2-1 .5-.1h.5l4.1.6.5.1h.6l4.1-.2h.5l.5 1 4.2 8.4.5 1 .5.2 4.1 1.6.6.2.5.3 4.1 3 .5.3.5.3 4.2 2.4.5.3.5.2 4.2 1.4.5.2.5.6 4.1 5.2.5.7.6.1 4.1.5.5.1.5.2 4.2 1.2.5.1.5.5 4.1 4 .6.5.5-.2 4.1-1.1.5-.2.6-.2 4.1-1.9.5-.3.5.2 4.2 1 .5.1.5.8 4.1 6.4.5.8.6.2 4.1 1.7.5.2.5.1 4.2.7.5.1.5.4 4.1 2.5.6.4.5.3 4.1 2.5.5.3.6.1 4.1.7.5.1.5.5 4.2 3.8.5.5.5.1 4.1 1 .5.2.6-.1 4.1-.3h1l4.2.4h.5l.5.4 4.1 3.2.6.4h.5l4.1.1.5.1.6.1 4.1 1.5.5.2.5.3 4.2 2.8.5.3.5.2 4.1 1.6.5.2.6-.2 4.1-1.7.5-.2.5.1 4.2 1.2.5.2.5-.1 4.1-.4h.6l.5.2 4.1 1.6.5.3.6.4 4.1 3.9.5.5.5.2 4.2 1.6.5.2.5.3 4.1 2.3.5.3.6.1 4.1.2h.5l.5-.2 4.2-1.5.5-.2.5.3 4.1 2.4.6.3.5.1 4.1.6.5.1.6-.1 4.1-.7.5-.1.5.1 4.2 1 .5.2.5-.1 4.1-.8.5-.1.6.2 4.1 1.9.5.2.5.5 4.2 3.6.5.5.5-1.1 4.1-8.9.6-1.1.5-.3 4.1-2.1.5-.3.6-.3 4.1-2.9.5-.4.5-.2 4.2-2 .5-.2.5-.2 4.1-1.2.5-.2.6.1 4.1.5.5.1h.5l4.2.8h.5l.5.1 4.1.2.6.1h.5l4.1.5.5.1.6.1 4.1 1 .5.1.5-.2 4.2-2 .5-.3.5-.2 4.1-2 .5-.2.6-.1 4.1-.1h.5l.5-.3 4.2-2.5.5-.3.5-.1 4.1-.9.6-.1.5-.2 4.1-1.2.5-.2h.6l4.1-.1.5-.1.5-.1 4.2-1.2.5-.1.5-.1 4.1-.4h.5l.6-.2 4.1-1.2.5-.1.5.2 4.2 1.8.5.2.5-.2 4.1-1.4.6-.2h.5l4.1-.1.5-.1.6.2 4.1 1.3.5.1.5.2 4.2 1.3.5.1.5.1 4.1.4h.5l.6-.2 4.1-1.8.5-.3.5.1 4.2.9.5.1.5-.5 4.1-3.7.6-.5.5-.2 4.1-2.1.5-.3.6.2 4.1 1.5.5.2.5-.2 4.2-1 .5-.1.5 301.9-.5-141.4-.5-.4-4.2-3.3-.5-.4h-.5l-4.1.7h-.6l-.5.4-4.1 2.4-.5.4-.6-.7-4.1-5.1-.5-.7-.5-.4-4.2-3.9-.5-.5-.5.1-4.1.4-.6.1-.5-.2-4.1-1.3-.5-.2h-.5l-4.2-.1h-1l-4.1.1h-1.1l-4.1.2-.5.1h-.6l-4.1.4h-.5l-.5-.4-4.2-3-.5-.4-.5-.8-4.1-6.1-.6-.7-.5-.4-4.1-2.9-.5-.4-.5-.7-4.2-5.5-.5-.7-.5-.6-4.1-4.9-.6-.6-.5-.3-4.1-2.6-.5-.4-.6-.5-4.1-4.6-.5-.6-.5-.5-4.2-4.2-.5-.5-.5-.4-4.1-2.8-.6-.4-.5-.7-4.1-5.7-.5-.7-.5-.3-4.2-2.5-.5-.4-.5-.2-4.1-1.8-.6-.2-.5-.1-4.1-.4-.5-.1-.6-.3-4.1-2.1-.5-.3-.5.2-4.2 1.6-.5.2-.5-.1-4.1-.2-.6-.1-.5.1-4.1.5-.5.1-.5-.2-4.2-1.2-.5-.2h-.5l-4.1.2h-.6l-.5-.1-4.1-.8-.5-.1-.6.7-4.1 5.3-.5.7-.5-.6-4.2-4.9-.5-.7-.5-.2-4.1-1.6-.6-.2-.5.1-4.1.8-.5.1-.5-.4-4.2-2.5-.5-.3-.5-.1-4.1-1-.6-.1-.5-.2-4.1-2.2-.5-.2-.6-.6-4.1-4.2-.5-.6h-.5l-4.2-.4h-.5l-.5-.2-4.1-1.9-.6-.3-.5-.7-4.1-5.4-.5-.6-.5-.3-4.2-2-.5-.2-.5-.5-4.1-3.4-.6-.4-.5-.2-4.1-1.4-.5-.2-.6-.3-4.1-1.9-.5-.3-.5-.4-4.2-2.9-.5-.4-.5.3-4.1 2.2-.6.3-.5-.7-4.1-5.2-.5-.7-.5-.4-4.2-3.3-.5-.4-.5-.2-4.1-1.2-.6-.1-.5-.1-4.1-.5-.5-.1-.6-.6-4.1-5-.5-.6-.5-.6-4.2-4.5-.5-.5-.5-.3-4.1-2-.6-.3-.5-.1-4.1-1.3-.5-.2h-.5l-4.2-.4h-.5l-.5-.2-4.1-1.5-.6-.2-.5-.4-4.1-3.2-.5-.4-.6-.3-4.1-1.8-.5-.2h-.5l-4.2.4h-.5l-.5.5-4.1 3.8-.6.5-.5.4-4.1 3.6-.5.5-.5-.4-4.2-2.5-.5-.3-.5-.7-4.1-5.9-.6-.7-.5-1.5-4.1-11.4-.5-1.5-.6-.7-4.1-5.6-.5-.7-.5-.2-4.2-1.9-.5-.2-.5-.2-4.1-1.4-.6-.1-.5-.9-4.1-6.6-.5-.9-.5-.2-4.2-1.5-.5-.2-.5-.5-4.2-3.9-.5-.5-.5-.5-4.1-4.1-.5-.5-.6-.2-4.1-2.2-.5-.2-.5-1.3-4.2-10.3-.5-1.3h-.5l-4.1.7h-.6l-.5-.1-4.1-.7-.5-.1-.5.4-4.2 3.2-.5.4-.5-1.4-4.2-10.8-.5-1.4-.5-.7-4.1-6.3-.5-.7-.6.1-4.1.9-.5.1-.5 1.9-4.2 15.1-.5 1.9-.5.8-4.1 6.1-.6.8-.5-.2-4.1-1.6-.5-.2-.5.4-4.2 2.8-.5.4-.5-.9-4.2-7.5-.5-.9-.5.3-4.1 2.2-.5.3-.6.2-4.1 1.4-.5.1-.5-.2-4.2-1.8-.5-.2-.5-.5-4.1-4.3-.6-.5h-.5l-4.1.2H73l-.5-1.6L68.3 88l-.5-1.6-.5-1-4.2-7.7-.5-1-.5-1-4.1-8.3-.5-1.1-.6.3-4.1 2.5-.5.3-.5.1-4.2.4-.5.1-.5-2.4-4.1-18.9-.6-2.4-.5 2.2-4.1 17.9-.5 2.3-.5.5-4.2 4.7-.5.6-.5-.4-4.2-3.1-.5-.3-.5 380.8z" style="stroke-width: 0.00; stroke: none; stroke-linecap: butt; fill: #FF0000;"/><path d="m26.4 64.2.5.4 4.2 2.8.5.4.5-.6 4.2-4.3.5-.5.5-2.2 4.1-17.7.5-2.3.6 2.4 4.1 19.2.5 2.4.5-.1 4.2-.7.5-.1.5-.2 4.1-2.2.6-.3.5 1 4.1 7.8.5 1 .5.8 4.2 6.9.5.8.5 1.6 4.2 12.2.5 1.5h.5l4.1-.4h.5l.6.5 4.1 3.8.5.5.5.1 4.2 1.1.5.1.5-.1 4.1-1 .6-.2.5-.1 4.1-1.4.5-.2.5 1 4.2 8 .5 1 .5-.5 4.2-3.7.5-.5.5.1 4.1.8.5.1.6-1 4.1-7.8.5-1 .5-2 4.2-16.3.5-2.1.5.1 4.1.8.6.1.5.9 4.1 6.8.5.9.5 1.7 4.2 13.7.5 1.7.5-.2 4.2-1 .5-.1h.5l4.1.6.5.1h.6l4.1-.2h.5l.5 1 4.2 8.4.5 1 .5.2 4.1 1.6.6.2.5.3 4.1 3 .5.3.5.3 4.2 2.4.5.3.5.2 4.2 1.4.5.2.5.6 4.1 5.2.5.7.6.1 4.1.5.5.1.5.2 4.2 1.2.5.1.5.5 4.1 4 .6.5.5-.2 4.1-1.1.5-.2.6-.2 4.1-1.9.5-.3.5.2 4.2 1 .5.1.5.8 4.1 6.4.5.8.6.2 4.1 1.7.5.2.5.1 4.2.7.5.1.5.4 4.1 2.5.6.4.5.3 4.1 2.5.5.3.6.1 4.1.7.5.1.5.5 4.2 3.8.5.5.5.1 4.1 1 .5.2.6-.1 4.1-.3h1l4.2.4h.5l.5.4 4.1 3.2.6.4h.5l4.1.1.5.1.6.1 4.1 1.5.5.2.5.3 4.2 2.8.5.3.5.2 4.1 1.6.5.2.6-.2 4.1-1.7.5-.2.5.1 4.2 1.2.5.2.5-.1 4.1-.4h.6l.5.2 4.1 1.6.5.3.6.4 4.1 3.9.5.5.5.2 4.2 1.6.5.2.5.3 4.1 2.3.5.3.6.1 4.1.2h.5l.5-.2 4.2-1.5.5-.2.5.3 4.1 2.4.6.3.5.1 4.1.6.5.1.6-.1 4.1-.7.5-.1.5.1 4.2 1 .5.2.5-.1 4.1-.8.5-.1.6.2 4.1 1.9.5.2.5.5 4.2 3.6.5.5.5-1.1 4.1-8.9.6-1.1.5-.3 4.1-2.1.5-.3.6-.3 4.1-2.9.5-.4.5-.2 4.2-2 .5-.2.5-.2 4.1-1.2.5-.2.6.1 4.1.5.5.1h.5l4.2.8h.5l.5.1 4.1.2.6.1h.5l4.1.5.5.1.6.1 4.1 1 .5.1.5-.2 4.2-2 .5-.3.5-.2 4.1-2 .5-.2.6-.1 4.1-.1h.5l.5-.3 4.2-2.5.5-.3.5-.1 4.1-.9.6-.1.5-.2 4.1-1.2.5-.2h.6l4.1-.1.5-.1.5-.1 4.2-1.2.5-.1.5-.1 4.1-.4h.5l.6-.2 4.1-1.2.5-.1.5.2 4.2 1.8.5.2.5-.2 4.1-1.4.6-.2h.5l4.1-.1.5-.1.6.2 4.1 1.3.5.1.5.2 4.2 1.3.5.1.5.1 4.1.4h.5l.6-.2 4.1-1.8.5-.3.5.1 4.2.9.5.1.5-.5 4.1-3.7.6-.5.5-.2 4.1-2.1.5-.3.6.2 4.1 1.5.5.2.5-.2 4.2-1 .5-.1" style="stroke-width: 1.07; stroke: none; stroke-linecap: butt;"/><path d="m26.4 70.7.5.3 4.2 3.1.5.4.5-.6 4.2-4.7.5-.5.5-2.3 4.1-17.9.5-2.2.6 2.4 4.1 18.9.5 2.4.5-.1 4.2-.4.5-.1.5-.3 4.1-2.5.6-.3.5 1.1 4.1 8.3.5 1 .5 1 4.2 7.7.5 1 .5 1.6 4.2 12.6.5 1.6h.5l4.1-.2h.5l.6.5 4.1 4.3.5.5.5.2 4.2 1.8.5.2.5-.1 4.1-1.4.6-.2.5-.3 4.1-2.2.5-.3.5.9 4.2 7.5.5.9.5-.4 4.2-2.8.5-.4.5.2 4.1 1.6.5.2.6-.8 4.1-6.1.5-.8.5-1.9 4.2-15.1.5-1.9.5-.1 4.1-.9.6-.1.5.7 4.1 6.3.5.7.5 1.4 4.2 10.8.5 1.4.5-.4 4.2-3.2.5-.4.5.1 4.1.7.5.1h.6l4.1-.7h.5l.5 1.3 4.2 10.3.5 1.3.5.2 4.1 2.2.6.2.5.5 4.1 4.1.5.5.5.5 4.2 3.9.5.5.5.2 4.2 1.5.5.2.5.9 4.1 6.6.5.9.6.1 4.1 1.4.5.2.5.2 4.2 1.9.5.2.5.7 4.1 5.6.6.7.5 1.5 4.1 11.4.5 1.5.6.7 4.1 5.9.5.7.5.3 4.2 2.5.5.4.5-.5 4.1-3.6.5-.4.6-.5 4.1-3.8.5-.5h.5l4.2-.4h.5l.5.2 4.1 1.8.6.3.5.4 4.1 3.2.5.4.6.2 4.1 1.5.5.2h.5l4.2.4h.5l.5.2 4.1 1.3.5.1.6.3 4.1 2 .5.3.5.5 4.2 4.5.5.6.5.6 4.1 5 .6.6.5.1 4.1.5.5.1.6.1 4.1 1.2.5.2.5.4 4.2 3.3.5.4.5.7 4.1 5.2.5.7.6-.3 4.1-2.2.5-.3.5.4 4.2 2.9.5.4.5.3 4.1 1.9.6.3.5.2 4.1 1.4.5.2.6.4 4.1 3.4.5.5.5.2 4.2 2 .5.3.5.6 4.1 5.4.5.7.6.3 4.1 1.9.5.2h.5l4.2.4h.5l.5.6 4.1 4.2.6.6.5.2 4.1 2.2.5.2.6.1 4.1 1 .5.1.5.3 4.2 2.5.5.4.5-.1 4.1-.8.5-.1.6.2 4.1 1.6.5.2.5.7 4.2 4.9.5.6.5-.7 4.1-5.3.6-.7.5.1 4.1.8.5.1h.6l4.1-.2h.5l.5.2 4.2 1.2.5.2.5-.1 4.1-.5.5-.1.6.1 4.1.2.5.1.5-.2 4.2-1.6.5-.2.5.3 4.1 2.1.6.3.5.1 4.1.4.5.1.6.2 4.1 1.8.5.2.5.4 4.2 2.5.5.3.5.7 4.1 5.7.5.7.6.4 4.1 2.8.5.4.5.5 4.2 4.2.5.5.5.6 4.1 4.6.6.5.5.4 4.1 2.6.5.3.6.6 4.1 4.9.5.6.5.7 4.2 5.5.5.7.5.4 4.1 2.9.5.4.6.7 4.1 6.1.5.8.5.4 4.2 3 .5.4h.5l4.1-.4h.6l.5-.1 4.1-.2h1.1l4.1-.1h1l4.2.1h.5l.5.2 4.1 1.3.5.2.6-.1 4.1-.4.5-.1.5.5 4.2 3.9.5.4.5.7 4.1 5.1.6.7.5-.4 4.1-2.4.5-.4h.6l4.1-.7h.5l.5.4 4.2 3.3.5.4.5 141.4-.5-107.5-.5-.1-4.2-.4-.5-.1-.5.2-4.1 1.5-.6.2-.5.3-4.1 2.1-.5.3-.6-.5-4.1-3.7-.5-.5-.5-.2-4.2-1.9-.5-.3-.5.3-4.1 1.9-.6.2-.5-.1-4.1-1-.5-.2h-5.2l-.5-.1-4.1-.7-.6-.1-.5.3-4.1 1.9-.5.3-.6.2-4.1 1.6-.5.3-.5-.3-4.2-1.7-.5-.2-.5-.4-4.1-3.6-.6-.4-.5-.2-4.1-1.8-.5-.2-.5-.3-4.2-2.4-.5-.3-.5-.4-4.1-3.2-.6-.4h-.5l-4.1-.5-.5-.1-.6-.4-4.1-3.1-.5-.4-.5-.3-4.2-2.3-.5-.3-.5-.1-4.1-1.1-.6-.2-.5-.5-4.1-3.9-.5-.5-.5-.2-4.2-1.3-.5-.2-.5-.2-4.1-2.3-.6-.3-.5.1-4.1.9-.5.1h-.6l-4.1.1h-.5l-.5.2-4.2 1.5-.5.2-.5.1-4.1 1.2-.6.2-.5.1-4.1 1-.5.1h-.5l-4.2-.6-.5-.1-.5.1-4.1 1.2-.6.1-.5.2-4.1 1.1-.5.1-.6.7-4.1 5.7-.5.7-.5-.3-4.2-2.4-.5-.3-.5-.1-4.1-1.1-.6-.1-.5.1-4.1 1-.5.1-.5.1-4.2 1-.5.1-.5.1-4.1.7-.6.1-.5-.1-4.1-.7-.5-.1-.6-.4-4.1-2.9-.5-.3-.5.2-4.2 1.6-.5.2-.5-.1-4.1-.4-.6-.1-.5-.5-4.1-4.1-.5-.5-.5.1-4.2.5h-.5l-.5-.4-4.1-3.2-.6-.4-.5-.1-4.1-1.4-.5-.2-.6-.3-4.1-2.2-.5-.2h-.5l-4.2.3-.5.1h-.5l-4.1.5-.6.1-.5-.4-4.1-3.3-.5-.4-.5-.4-4.2-3.3-.5-.4-.5-.1-4.1-.8-.6-.1h-.5l-4.1.2h-.5l-.6-.5-4.1-3.9-.5-.5-.5-.1-4.2-1.1-.5-.1-.5-.3-4.1-2-.6-.2-.5-.3-4.1-1.9-.5-.3-.5.1-4.2.6h-1l-4.1.2h-1.1l-4.1-.1-.5-.1-.6-.2-4.1-1.6-.5-.2-.5-.1-4.2-.9-.5-.2-.5.1-4.1.6h-1.1l-4.1-.5h-.5l-.5-.6-4.2-4.4-.5-.5-.5-.4-4.1-2.6-.6-.3-.5-1-4.1-8.1-.5-1.1-.6-.6-4.1-5.6-.5-.6-.5-.3-4.2-2.5-.5-.3h-.5l-4.1-.1h-.6l-.5-1.3-4.1-10.6-.5-1.3-.5-.1-4.2-.7h-.5l-.5-.8-4.2-6.4-.5-.7-.5-1-4.1-7.5-.5-1-.6.7-4.1 4.9-.5.6-.5-2.9-4.2-23.3-.5-2.9-.5-.4-4.1-3.1-.6-.4-.5-.5-4.1-3.9-.5-.5-.5-3.1-4.2-25-.5-3.1-.5 4-4.2 32.5-.5 4-.5 1.4-4.1 10.6-.5 1.3-.6.2-4.1 2-.5.3-.5 1.6-4.2 13.3-.5 1.6-.5 1.3-4.1 10.2-.6 1.2-.5.5-4.1 4-.5.5-.5.7-4.2 6-.5.7-.5-2-4.2-15.6-.5-2-.5-.4-4.1-3.3-.5-.4-.6.8-4.1 7-.5.8-.5-.2-4.2-1.5-.5-.2-.5-.4-4.1-3.3-.6-.4-.5.3-4.1 2.6-.5.4-.5-1.3-4.2-10.3-.5-1.3-.5-1.1-4.2-8.6-.5-1-.5-.8L58 214l-.5-.8h-.6l-4.1-.3h-.5l-.5-.3-4.2-2.7-.5-.3-.5-2.8-4.1-22.2-.6-2.8-.5 2.5-4.1 19.7-.5 2.5-.5.6-4.2 4.5-.5.6-.5-2.8-4.2-22.3-.5-2.7-.5 267.1z" style="stroke-width: 0.00; stroke: none; stroke-linecap: butt; fill: #00F000;"/><path d="m26.4 70.7.5.3 4.2 3.1.5.4.5-.6 4.2-4.7.5-.5.5-2.3 4.1-17.9.5-2.2.6 2.4 4.1 18.9.5 2.4.5-.1 4.2-.4.5-.1.5-.3 4.1-2.5.6-.3.5 1.1 4.1 8.3.5 1 .5 1 4.2 7.7.5 1 .5 1.6 4.2 12.6.5 1.6h.5l4.1-.2h.5l.6.5 4.1 4.3.5.5.5.2 4.2 1.8.5.2.5-.1 4.1-1.4.6-.2.5-.3 4.1-2.2.5-.3.5.9 4.2 7.5.5.9.5-.4 4.2-2.8.5-.4.5.2 4.1 1.6.5.2.6-.8 4.1-6.1.5-.8.5-1.9 4.2-15.1.5-1.9.5-.1 4.1-.9.6-.1.5.7 4.1 6.3.5.7.5 1.4 4.2 10.8.5 1.4.5-.4 4.2-3.2.5-.4.5.1 4.1.7.5.1h.6l4.1-.7h.5l.5 1.3 4.2 10.3.5 1.3.5.2 4.1 2.2.6.2.5.5 4.1 4.1.5.5.5.5 4.2 3.9.5.5.5.2 4.2 1.5.5.2.5.9 4.1 6.6.5.9.6.1 4.1 1.4.5.2.5.2 4.2 1.9.5.2.5.7 4.1 5.6.6.7.5 1.5 4.1 11.4.5 1.5.6.7 4.1 5.9.5.7.5.3 4.2 2.5.5.4.5-.5 4.1-3.6.5-.4.6-.5 4.1-3.8.5-.5h.5l4.2-.4h.5l.5.2 4.1 1.8.6.3.5.4 4.1 3.2.5.4.6.2 4.1 1.5.5.2h.5l4.2.4h.5l.5.2 4.1 1.3.5.1.6.3 4.1 2 .5.3.5.5 4.2 4.5.5.6.5.6 4.1 5 .6.6.5.1 4.1.5.5.1.6.1 4.1 1.2.5.2.5.4 4.2 3.3.5.4.5.7 4.1 5.2.5.7.6-.3 4.1-2.2.5-.3.5.4 4.2 2.9.5.4.5.3 4.1 1.9.6.3.5.2 4.1 1.4.5.2.6.4 4.1 3.4.5.5.5.2 4.2 2 .5.3.5.6 4.1 5.4.5.7.6.3 4.1 1.9.5.2h.5l4.2.4h.5l.5.6 4.1 4.2.6.6.5.2 4.1 2.2.5.2.6.1 4.1 1 .5.1.5.3 4.2 2.5.5.4.5-.1 4.1-.8.5-.1.6.2 4.1 1.6.5.2.5.7 4.2 4.9.5.6.5-.7 4.1-5.3.6-.7.5.1 4.1.8.5.1h.6l4.1-.2h.5l.5.2 4.2 1.2.5.2.5-.1 4.1-.5.5-.1.6.1 4.1.2.5.1.5-.2 4.2-1.6.5-.2.5.3 4.1 2.1.6.3.5.1 4.1.4.5.1.6.2 4.1 1.8.5.2.5.4 4.2 2.5.5.3.5.7 4.1 5.7.5.7.6.4 4.1 2.8.5.4.5.5 4.2 4.2.5.5.5.6 4.1 4.6.6.5.5.4 4.1 2.6.5.3.6.6 4.1 4.9.5.6.5.7 4.2 5.5.5.7.5.4 4.1 2.9.5.4.6.7 4.1 6.1.5.8.5.4 4.2 3 .5.4h.5l4.1-.4h.6l.5-.1 4.1-.2h1.1l4.1-.1h1l4.2.1h.5l.5.2 4.1 1.3.5.2.6-.1 4.1-.4.5-.1.5.5 4.2 3.9.5.4.5.7 4.1 5.1.6.7.5-.4 4.1-2.4.5-.4h.6l4.1-.7h.5l.5.4 4.2 3.3.5.4" style="stroke-width: 1.07; stroke: none; stroke-linecap: butt;"/><path d="m26.4 184.4.5 2.7 4.2 22.3.5 2.8.5-.6 4.2-4.5.5-.6.5-2.5 4.1-19.7.5-2.5.6 2.8 4.1 22.2.5 2.8.5.3 4.2 2.7.5.3h.5l4.1.3h.6l.5.8 4.1 6.6.5.8.5 1 4.2 8.6.5 1.1.5 1.3 4.2 10.3.5 1.3.5-.4 4.1-2.6.5-.3.6.4 4.1 3.3.5.4.5.2 4.2 1.5.5.2.5-.8 4.1-7 .6-.8.5.4 4.1 3.3.5.4.5 2 4.2 15.6.5 2 .5-.7 4.2-6 .5-.7.5-.5 4.1-4 .5-.5.6-1.2L119 239l.5-1.3.5-1.6 4.2-13.3.5-1.6.5-.3 4.1-2 .6-.2.5-1.3 4.1-10.6.5-1.4.5-4 4.2-32.5.5-4 .5 3.1 4.2 25 .5 3.1.5.5 4.1 3.9.5.5.6.4 4.1 3.1.5.4.5 2.9 4.2 23.3.5 2.9.5-.6 4.1-4.9.6-.7.5 1 4.1 7.5.5 1 .5.7 4.2 6.4.5.8h.5l4.2.7.5.1.5 1.3 4.1 10.6.5 1.3h.6l4.1.1h.5l.5.3 4.2 2.5.5.3.5.6 4.1 5.6.6.6.5 1.1 4.1 8.1.5 1 .6.3 4.1 2.6.5.4.5.5 4.2 4.4.5.6h.5l4.1.5h1.1l4.1-.6.5-.1.5.2 4.2.9.5.1.5.2 4.1 1.6.6.2.5.1 4.1.1h1.1l4.1-.2h1l4.2-.6.5-.1.5.3 4.1 1.9.5.3.6.2 4.1 2 .5.3.5.1 4.2 1.1.5.1.5.5 4.1 3.9.6.5h.5l4.1-.2h.5l.6.1 4.1.8.5.1.5.4 4.2 3.3.5.4.5.4 4.1 3.3.5.4.6-.1 4.1-.5h.5l.5-.1 4.2-.3h.5l.5.2 4.1 2.2.6.3.5.2 4.1 1.4.5.1.6.4 4.1 3.2.5.4h.5l4.2-.5.5-.1.5.5 4.1 4.1.5.5.6.1 4.1.4.5.1.5-.2 4.2-1.6.5-.2.5.3 4.1 2.9.6.4.5.1 4.1.7.5.1.6-.1 4.1-.7.5-.1.5-.1 4.2-1 .5-.1.5-.1 4.1-1 .5-.1.6.1 4.1 1.1.5.1.5.3 4.2 2.4.5.3.5-.7 4.1-5.7.6-.7.5-.1 4.1-1.1.5-.2.6-.1 4.1-1.2.5-.1.5.1 4.2.6h.5l.5-.1 4.1-1 .5-.1.6-.2 4.1-1.2.5-.1.5-.2 4.2-1.5.5-.2h.5l4.1-.1h.6l.5-.1 4.1-.9.5-.1.6.3 4.1 2.3.5.2.5.2 4.2 1.3.5.2.5.5 4.1 3.9.5.5.6.2 4.1 1.1.5.1.5.3 4.2 2.3.5.3.5.4 4.1 3.1.6.4.5.1 4.1.5h.5l.6.4 4.1 3.2.5.4.5.3 4.2 2.4.5.3.5.2 4.1 1.8.5.2.6.4 4.1 3.6.5.4.5.2 4.2 1.7.5.3.5-.3 4.1-1.6.6-.2.5-.3 4.1-1.9.5-.3.6.1 4.1.7.5.1h5.2l.5.2 4.1 1 .5.1.6-.2 4.1-1.9.5-.3.5.3 4.2 1.9.5.2.5.5 4.1 3.7.6.5.5-.3 4.1-2.1.5-.3.6-.2 4.1-1.5.5-.2.5.1 4.2.4.5.1.5 107.5-.5-66.2-.5-.3-4.2-2.6-.5-.3h-.5l-4.1.1h-.6l-.5.1-4.1.7-.5.1-.6-.4-4.1-3.1-.5-.4-.5-.2-4.2-1.9-.5-.2-.5.1-4.1.6-.6.1-.5-.2-4.1-1.4-.5-.2-.5-.2-4.2-1.4-.5-.2-.5-.2-4.1-1.7-.6-.2-.5.1-4.1.3h-.5l-.6.1-4.1 1.1-.5.1-.5-.4-4.2-3.3-.5-.4-.5-.5-4.1-3.9-.6-.5-.5-.2-4.1-1.4-.5-.1-.5-.6-4.2-4.3-.5-.6-.5-.5-4.1-4.1-.6-.5-.5-.1-4.1-1.3-.5-.2-.6-.5-4.1-3.8-.5-.5-.5-.4-4.2-2.6-.5-.3-.5-.2-4.1-1.5-.6-.2-.5-.5-4.1-3.7-.5-.4-.5-.2-4.2-1.4-.5-.2-.5-.3-4.1-2.4-.6-.3-.5.1-4.1.9-.5.1-.6-.1-4.1-1-.5-.1-.5.1-4.2 1.2-.5.1-.5.1-4.1.7-.6.1h-.5l-4.1.4h-.5l-.5-.1-4.2-1.2-.5-.1-.5.1-4.1.6-.6.1-.5.1-4.1.9-.5.1-.6.5-4.1 4.6-.5.6-.5-.3-4.2-2.9-.5-.3-.5-.2-4.1-1.6-.6-.2h-.5l-4.1.2-.5.1h-.5l-4.2.7-.5.1h-.5l-4.1.4h-.6l-.5-.1-4.1-1.2-.5-.1-.6-.5-4.1-3.3-.5-.4-.5.2-4.2 1.6-.5.2-.5-.1-4.1-1-.6-.1-.5-.6-4.1-4.3-.5-.6h-.5l-4.2-.1h-.5l-.5-.5-4.1-3.5-.6-.5-.5-.2-4.1-1.5-.5-.2-.6-.2-4.1-2.1-.5-.3h-.5l-4.2.2h-.5l-.5.1-4.1.5-.6.1-.5-.5-4.1-3.7-.5-.4-.5-.5-4.2-3.4-.5-.4-.5-.1-4.1-.7-.6-.1h-.5l-4.1.1h-.5l-.6-.5-4.1-3.9-.5-.5-.5-.1-4.2-.8-.5-.1-.5-.3-4.1-1.7-.6-.3-.5-.2-4.1-2.1-.5-.3-.5.1-4.2.7-.5.1h-.5l-4.1.2h-1.1l-4.1-.4-.5-.1-.6-.1-4.1-1.2-.5-.2-.5-.1-4.2-1.1-.5-.1h-.5l-4.1.2h-.6l-.5-.1-4.1-.8-.5-.1-.5-.6-4.2-4.5-.5-.6-.5-.3-4.1-2.7-.6-.3-.5-1-4.1-8.2-.5-1-.6-.8-4.1-5.9-.5-.7-.5-.3-4.2-2.3-.5-.3h-.5l-4.1-.1h-.6l-.5-1.3-4.1-10.7-.5-1.3-.5-.1-4.2-.6-.5-.1-.5-.8-4.2-6.5-.5-.8-.5-1-4.1-7.4-.5-.9-.6.6-4.1 5.2-.5.6-.5-3-4.2-23.6-.5-3-.5-.4-4.1-2.9-.6-.4-.5-.4-4.1-3.5-.5-.4-.5-3.1-4.2-24.6-.5-3-.5 3.9-4.2 31.1-.5 3.9-.5 1.4-4.1 10.5-.5 1.4-.6.3-4.1 2.6-.5.4-.5 1.6-4.2 13.2-.5 1.7-.5 1.2-4.1 10.2-.6 1.3-.5.5-4.1 4.1-.5.5-.5.8-4.2 6.3-.5.8-.5-2.1-4.2-16.4-.5-2.1-.5-.4-4.1-3.5-.5-.4-.6.9-4.1 7.4-.5.9-.5-.2-4.2-1.5-.5-.2-.5-.4-4.1-3.4-.6-.4-.5.3-4.1 3-.5.3-.5-1.3-4.2-10.4-.5-1.3-.5-1.1-4.2-8.7-.5-1.1-.5-.8-4.1-7-.5-.8-.6-.1-4.1-.1h-.5l-.5-.3-4.2-2.5-.5-.3-.5-2.7-4.1-22.1-.6-2.7-.5 2.4-4.1 19.7-.5 2.5-.5.5-4.2 4.7-.5.6-.5-2.9-4.2-22.5-.5-2.8-.5 261.9z" style="stroke-width: 0.00; stroke: none; stroke-linecap: butt; fill: #00FF00;"/><path d="m26.4 184.4.5 2.7 4.2 22.3.5 2.8.5-.6 4.2-4.5.5-.6.5-2.5 4.1-19.7.5-2.5.6 2.8 4.1 22.2.5 2.8.5.3 4.2 2.7.5.3h.5l4.1.3h.6l.5.8 4.1 6.6.5.8.5 1 4.2 8.6.5 1.1.5 1.3 4.2 10.3.5 1.3.5-.4 4.1-2.6.5-.3.6.4 4.1 3.3.5.4.5.2 4.2 1.5.5.2.5-.8 4.1-7 .6-.8.5.4 4.1 3.3.5.4.5 2 4.2 15.6.5 2 .5-.7 4.2-6 .5-.7.5-.5 4.1-4 .5-.5.6-1.2L119 239l.5-1.3.5-1.6 4.2-13.3.5-1.6.5-.3 4.1-2 .6-.2.5-1.3 4.1-10.6.5-1.4.5-4 4.2-32.5.5-4 .5 3.1 4.2 25 .5 3.1.5.5 4.1 3.9.5.5.6.4 4.1 3.1.5.4.5 2.9 4.2 23.3.5 2.9.5-.6 4.1-4.9.6-.7.5 1 4.1 7.5.5 1 .5.7 4.2 6.4.5.8h.5l4.2.7.5.1.5 1.3 4.1 10.6.5 1.3h.6l4.1.1h.5l.5.3 4.2 2.5.5.3.5.6 4.1 5.6.6.6.5 1.1 4.1 8.1.5 1 .6.3 4.1 2.6.5.4.5.5 4.2 4.4.5.6h.5l4.1.5h1.1l4.1-.6.5-.1.5.2 4.2.9.5.1.5.2 4.1 1.6.6.2.5.1 4.1.1h1.1l4.1-.2h1l4.2-.6.5-.1.5.3 4.1 1.9.5.3.6.2 4.1 2 .5.3.5.1 4.2 1.1.5.1.5.5 4.1 3.9.6.5h.5l4.1-.2h.5l.6.1 4.1.8.5.1.5.4 4.2 3.3.5.4.5.4 4.1 3.3.5.4.6-.1 4.1-.5h.5l.5-.1 4.2-.3h.5l.5.2 4.1 2.2.6.3.5.2 4.1 1.4.5.1.6.4 4.1 3.2.5.4h.5l4.2-.5.5-.1.5.5 4.1 4.1.5.5.6.1 4.1.4.5.1.5-.2 4.2-1.6.5-.2.5.3 4.1 2.9.6.4.5.1 4.1.7.5.1.6-.1 4.1-.7.5-.1.5-.1 4.2-1 .5-.1.5-.1 4.1-1 .5-.1.6.1 4.1 1.1.5.1.5.3 4.2 2.4.5.3.5-.7 4.1-5.7.6-.7.5-.1 4.1-1.1.5-.2.6-.1 4.1-1.2.5-.1.5.1 4.2.6h.5l.5-.1 4.1-1 .5-.1.6-.2 4.1-1.2.5-.1.5-.2 4.2-1.5.5-.2h.5l4.1-.1h.6l.5-.1 4.1-.9.5-.1.6.3 4.1 2.3.5.2.5.2 4.2 1.3.5.2.5.5 4.1 3.9.5.5.6.2 4.1 1.1.5.1.5.3 4.2 2.3.5.3.5.4 4.1 3.1.6.4.5.1 4.1.5h.5l.6.4 4.1 3.2.5.4.5.3 4.2 2.4.5.3.5.2 4.1 1.8.5.2.6.4 4.1 3.6.5.4.5.2 4.2 1.7.5.3.5-.3 4.1-1.6.6-.2.5-.3 4.1-1.9.5-.3.6.1 4.1.7.5.1h5.2l.5.2 4.1 1 .5.1.6-.2 4.1-1.9.5-.3.5.3 4.2 1.9.5.2.5.5 4.1 3.7.6.5.5-.3 4.1-2.1.5-.3.6-.2 4.1-1.5.5-.2.5.1 4.2.4.5.1" style="stroke-width: 1.07; stroke: none; stroke-linecap: butt;"/><path d="m26.4 189.6.5 2.8 4.2 22.5.5 2.9.5-.6 4.2-4.7.5-.5.5-2.5 4.1-19.7.5-2.4.6 2.7 4.1 22.1.5 2.7.5.3 4.2 2.5.5.3h.5l4.1.1.6.1.5.8 4.1 7 .5.8.5 1.1 4.2 8.7.5 1.1.5 1.3 4.2 10.4.5 1.3.5-.3 4.1-3 .5-.3.6.4 4.1 3.4.5.4.5.2L88 253l.5.2.5-.9 4.1-7.4.6-.9.5.4 4.1 3.5.5.4.5 2.1 4.2 16.4.5 2.1.5-.8 4.2-6.3.5-.8.5-.5 4.1-4.1.5-.5.6-1.3 4.1-10.2.5-1.2.5-1.7 4.2-13.2.5-1.6.5-.4 4.1-2.6.6-.3.5-1.4 4.1-10.5.5-1.4.5-3.9 4.2-31.1.5-3.9.5 3 4.2 24.6.5 3.1.5.4 4.1 3.5.5.4.6.4 4.1 2.9.5.4.5 3 4.2 23.6.5 3 .5-.6 4.1-5.2.6-.6.5.9 4.1 7.4.5 1 .5.8 4.2 6.5.5.8.5.1 4.2.6.5.1.5 1.3 4.1 10.7.5 1.3h.6l4.1.1h.5l.5.3 4.2 2.3.5.3.5.7 4.1 5.9.6.8.5 1 4.1 8.2.5 1 .6.3 4.1 2.7.5.3.5.6 4.2 4.5.5.6.5.1 4.1.8.5.1h.6l4.1-.2h.5l.5.1 4.2 1.1.5.1.5.2 4.1 1.2.6.1.5.1 4.1.4h1.1l4.1-.2h.5l.5-.1 4.2-.7.5-.1.5.3 4.1 2.1.5.2.6.3 4.1 1.7.5.3.5.1 4.2.8.5.1.5.5 4.1 3.9.6.5h.5l4.1-.1h.5l.6.1 4.1.7.5.1.5.4 4.2 3.4.5.5.5.4 4.1 3.7.5.5.6-.1 4.1-.5.5-.1h.5l4.2-.2h.5l.5.3 4.1 2.1.6.2.5.2 4.1 1.5.5.2.6.5 4.1 3.5.5.5h.5l4.2.1h.5l.5.6 4.1 4.3.5.6.6.1 4.1 1 .5.1.5-.2 4.2-1.6.5-.2.5.4 4.1 3.3.6.5.5.1 4.1 1.2.5.1h.6l4.1-.4h.5l.5-.1 4.2-.7h.5l.5-.1 4.1-.2h.5l.6.2 4.1 1.6.5.2.5.3 4.2 2.9.5.3.5-.6 4.1-4.6.6-.5.5-.1 4.1-.9.5-.1.6-.1 4.1-.6.5-.1.5.1 4.2 1.2.5.1h.5l4.1-.4h.5l.6-.1 4.1-.7.5-.1.5-.1 4.2-1.2.5-.1.5.1 4.1 1 .6.1.5-.1 4.1-.9.5-.1.6.3 4.1 2.4.5.3.5.2 4.2 1.4.5.2.5.4 4.1 3.7.5.5.6.2 4.1 1.5.5.2.5.3 4.2 2.6.5.4.5.5 4.1 3.8.6.5.5.2 4.1 1.3.5.1.6.5 4.1 4.1.5.5.5.6 4.2 4.3.5.6.5.1 4.1 1.4.5.2.6.5 4.1 3.9.5.5.5.4 4.2 3.3.5.4.5-.1 4.1-1.1.6-.1h.5l4.1-.3.5-.1.6.2 4.1 1.7.5.2.5.2 4.2 1.4.5.2.5.2 4.1 1.4.5.2.6-.1 4.1-.6.5-.1.5.2 4.2 1.9.5.2.5.4 4.1 3.1.6.4.5-.1 4.1-.7.5-.1h.6l4.1-.1h.5l.5.3 4.2 2.6.5.3.5 66.2H25.9z" style="stroke-width: 0.00; stroke: none; stroke-linecap: butt; fill: #0000F0;"/><path d="m26.4 189.6.5 2.8 4.2 22.5.5 2.9.5-.6 4.2-4.7.5-.5.5-2.5 4.1-19.7.5-2.4.6 2.7 4.1 22.1.5 2.7.5.3 4.2 2.5.5.3h.5l4.1.1.6.1.5.8 4.1 7 .5.8.5 1.1 4.2 8.7.5 1.1.5 1.3 4.2 10.4.5 1.3.5-.3 4.1-3 .5-.3.6.4 4.1 3.4.5.4.5.2L88 253l.5.2.5-.9 4.1-7.4.6-.9.5.4 4.1 3.5.5.4.5 2.1 4.2 16.4.5 2.1.5-.8 4.2-6.3.5-.8.5-.5 4.1-4.1.5-.5.6-1.3 4.1-10.2.5-1.2.5-1.7 4.2-13.2.5-1.6.5-.4 4.1-2.6.6-.3.5-1.4 4.1-10.5.5-1.4.5-3.9 4.2-31.1.5-3.9.5 3 4.2 24.6.5 3.1.5.4 4.1 3.5.5.4.6.4 4.1 2.9.5.4.5 3 4.2 23.6.5 3 .5-.6 4.1-5.2.6-.6.5.9 4.1 7.4.5 1 .5.8 4.2 6.5.5.8.5.1 4.2.6.5.1.5 1.3 4.1 10.7.5 1.3h.6l4.1.1h.5l.5.3 4.2 2.3.5.3.5.7 4.1 5.9.6.8.5 1 4.1 8.2.5 1 .6.3 4.1 2.7.5.3.5.6 4.2 4.5.5.6.5.1 4.1.8.5.1h.6l4.1-.2h.5l.5.1 4.2 1.1.5.1.5.2 4.1 1.2.6.1.5.1 4.1.4h1.1l4.1-.2h.5l.5-.1 4.2-.7.5-.1.5.3 4.1 2.1.5.2.6.3 4.1 1.7.5.3.5.1 4.2.8.5.1.5.5 4.1 3.9.6.5h.5l4.1-.1h.5l.6.1 4.1.7.5.1.5.4 4.2 3.4.5.5.5.4 4.1 3.7.5.5.6-.1 4.1-.5.5-.1h.5l4.2-.2h.5l.5.3 4.1 2.1.6.2.5.2 4.1 1.5.5.2.6.5 4.1 3.5.5.5h.5l4.2.1h.5l.5.6 4.1 4.3.5.6.6.1 4.1 1 .5.1.5-.2 4.2-1.6.5-.2.5.4 4.1 3.3.6.5.5.1 4.1 1.2.5.1h.6l4.1-.4h.5l.5-.1 4.2-.7h.5l.5-.1 4.1-.2h.5l.6.2 4.1 1.6.5.2.5.3 4.2 2.9.5.3.5-.6 4.1-4.6.6-.5.5-.1 4.1-.9.5-.1.6-.1 4.1-.6.5-.1.5.1 4.2 1.2.5.1h.5l4.1-.4h.5l.6-.1 4.1-.7.5-.1.5-.1 4.2-1.2.5-.1.5.1 4.1 1 .6.1.5-.1 4.1-.9.5-.1.6.3 4.1 2.4.5.3.5.2 4.2 1.4.5.2.5.4 4.1 3.7.5.5.6.2 4.1 1.5.5.2.5.3 4.2 2.6.5.4.5.5 4.1 3.8.6.5.5.2 4.1 1.3.5.1.6.5 4.1 4.1.5.5.5.6 4.2 4.3.5.6.5.1 4.1 1.4.5.2.6.5 4.1 3.9.5.5.5.4 4.2 3.3.5.4.5-.1 4.1-1.1.6-.1h.5l4.1-.3.5-.1.6.2 4.1 1.7.5.2.5.2 4.2 1.4.5.2.5.2 4.1 1.4.5.2.6-.1 4.1-.6.5-.1.5.2 4.2 1.9.5.2.5.4 4.1 3.1.6.4.5-.1 4.1-.7.5-.1h.6l4.1-.1h.5l.5.3 4.2 2.6.5.3" style="stroke-width: 1.07; stroke: none; stroke-linecap: butt;"/></g></svg>