<svg xmlns="http://www.w3.org/2000/svg" width="760" height="630.7" class="svglite" viewBox="0 0 570 473"><defs><style><![CDATA[
    .svglite line, .svglite polyline, .svglite polygon, .svglite path, .svglite rect, .svglite circle {
      fill: none;
      stroke: #000000;
      stroke-linecap: round;
      stroke-linejoin: round;
      stroke-miterlimit: 10.00;
    }
    .svglite text {
      white-space: pre;
    }
  ]]></style></defs><rect width="100%" height="100%" style="stroke: none; fill: none;"/><defs><clipPath id="cpMC4wMHw1NzAuMDB8MC4wMHw0NzMuMDA="><path d="M0 0h570v473H0z"/></clipPath></defs><g clip-path="url(#cpMC4wMHw1NzAuMDB8MC4wMHw0NzMuMDA=)"><circle cx="65.8" cy="172.6" r="1.9" style="stroke-width: 0.71; stroke: #333333; fill: #333333;"/><circle cx="65.8" cy="200.8" r="1.9" style="stroke-width: 0.71; stroke: #333333; fill: #333333;"/><circle cx="65.8" cy="21.5" r="1.9" style="stroke-width: 0.71; stroke: #333333; fill: #333333;"/><circle cx="65.8" cy="219" r="1.9" style="stroke-width: 0.71; stroke: #333333; fill: #333333;"/><circle cx="65.8" cy="197.7" r="1.9" style="stroke-width: 0.71; stroke: #333333; fill: #333333;"/><path d="M65.8 313.4v-64.7M65.8 436.1v15.4" style="stroke-width: 1.07; stroke: #333333; stroke-linecap: butt;"/><path d="M24.7 313.4V436.1h82.2V313.4H24.7z" style="stroke-width: 1.07; stroke: #333333; stroke-linecap: butt; stroke-linejoin: miter; fill: #F00000;"/><path d="M24.7 392.9h82.2" style="stroke-width: 2.13; stroke: #333333; stroke-linecap: butt;"/><circle cx="175.4" cy="136.2" r="1.9" style="stroke-width: 0.71; stroke: #333333; fill: #333333;"/><circle cx="175.4" cy="174.5" r="1.9" style="stroke-width: 0.71; stroke: #333333; fill: #333333;"/><path d="M175.4 299.2V229.1M175.4 431.8V451.5" style="stroke-width: 1.07; stroke: #333333; stroke-linecap: butt;"/><path d="M134.3 299.2v132.6h82.2V299.2h-82.2z" style="stroke-width: 1.07; stroke: #333333; stroke-linecap: butt; stroke-linejoin: miter; fill: #FF0000;"/><path d="M134.3 364h82.2" style="stroke-width: 2.13; stroke: #333333; stroke-linecap: butt;"/><circle cx="285" cy="175.9" r="1.9" style="stroke-width: 0.71; stroke: #333333; fill: #333333;"/><circle cx="285" cy="174.1" r="1.9" style="stroke-width: 0.71; stroke: #333333; fill: #333333;"/><circle cx="285" cy="115.8" r="1.9" style="stroke-width: 0.71; stroke: #333333; fill: #333333;"/><circle cx="285" cy="132.8" r="1.9" style="stroke-width: 0.71; stroke: #333333; fill: #333333;"/><path d="M285 281.9v-62.5M285 419.8v31.7" style="stroke-width: 1.07; stroke: #333333; stroke-linecap: butt;"/><path d="M243.9 281.9v137.9h82.2V281.9h-82.2z" style="stroke-width: 1.07; stroke: #333333; stroke-linecap: butt; stroke-linejoin: miter; fill: #00F000;"/><path d="M243.9 361h82.2" style="stroke-width: 2.13; stroke: #333333; stroke-linecap: butt;"/><path d="M394.6 217.8V101.3M394.6 382v69.5" style="stroke-width: 1.07; stroke: #333333; stroke-linecap: butt;"/><path d="M353.5 217.8V382h82.2V217.8h-82.2z" style="stroke-width: 1.07; stroke: #333333; stroke-linecap: butt; stroke-linejoin: miter; fill: #00FF00;"/><path d="M353.5 299.9h82.2" style="stroke-width: 2.13; stroke: #333333; stroke-linecap: butt;"/><path d="M504.2 211.8V159.6M504.2 451.5" style="stroke-width: 1.07; stroke: #333333; stroke-linecap: butt;"/><path d="M463.1 211.8v239.7h82.2V211.8H463.1z" style="stroke-width: 1.07; stroke: #333333; stroke-linecap: butt; stroke-linejoin: miter; fill: #0000F0;"/><path d="M463.1 382.2h82.2" style="stroke-width: 2.13; stroke: #333333; stroke-linecap: butt;"/></g></svg>