<svg xmlns="http://www.w3.org/2000/svg" width="760" height="630.7" class="svglite" viewBox="0 0 570 473"><defs><style><![CDATA[
    .svglite line, .svglite polyline, .svglite polygon, .svglite path, .svglite rect, .svglite circle {
      fill: none;
      stroke: #000000;
      stroke-linecap: round;
      stroke-linejoin: round;
      stroke-miterlimit: 10.00;
    }
    .svglite text {
      white-space: pre;
    }
  ]]></style></defs><rect width="100%" height="100%" style="stroke: none; fill: none;"/><defs><clipPath id="cpMC4wMHw1NzAuMDB8MC4wMHw0NzMuMDA="><path d="M0 0h570v473H0z"/></clipPath></defs><g clip-path="url(#cpMC4wMHw1NzAuMDB8MC4wMHw0NzMuMDA=)"><path d="m25.9 449.6 5.2-.1 5.2.1 5.2.1h5.1l5.2-.1H57l5.2-.1 5.2-.1 5.2.1 5.1-.1 5.2-.3 5.2-.4 5.2-.1 5.2.2 5.1.4 5.2-.5 5.2-.6 5.2-.9 5.2-.5 5.2.8 5.1.2 5.2 1.8 5.2.7 5.2-.2 5.2.1 5.1-.8 5.2-.6 5.2-.7 5.2-.9 5.2-.1 5.2-.8 5.1-.8 5.2-.6 5.2-1.1 5.2-7.9 5.2-5.6 5.1-2.3 5.2 6.8 5.2 3.5 5.2.4 5.2.3 5.2-.7 5.1-1 5.2 2.6 5.2-.5 5.2-2.4 5.2-4.3 5.1-1.9 5.2-.9 5.2-.4 5.2.1 5.2-2.9 5.2-.6 5.1-1.9 5.2-2.7 5.2-.3 5.2 1 5.2.8 5.1-2 5.2-1.2 5.2-2.3 5.2-2.3 5.2-1.3 5.2-2.1 5.1-2.2h5.2l5.2.4 5.2-1.4 5.2-1.5 5.1-2.6 5.2-2.5 5.2-3.6 5.2-1.9 5.2.4 5.2 2.7 5.1-2.5 5.2-1 5.2-.8 5.2-5.3 5.2-10.6 5.1-5.2 5.2-9.3 5.2-8.5 5.2-6.6 5.2-6.8 5.2-4.9 5.1-9.7 5.2-12.2 5.2-2.5 5.2-1.6 5.2.5 5.1 2.5 5.2 2.2 5.2-2.6 5.2-3.8 5.2-4.7 5.2-2.3 5.1-7.3 5.2 1.1 5.2-7.7" style="stroke-width: 1.07; stroke: #F00000; stroke-linecap: butt;"/><path d="m25.9 451.5 5.2-.3 5.2-.1 5.2-.3 5.1.2h5.2l5.2-.1 5.2.2 5.2.1 5.2.1h5.1l5.2.1h10.4l5.2.1H150.3l5.2-.5 5.1-.1 5.2-15.3 5.2-.5 5.2-3 5.2 2.4 5.2 2.5 5.1-1.1 5.2 1.4 5.2-2.9 5.2-3.3 5.2-2.6 5.1 1.3 5.2-.7 5.2-1.2 5.2-3.7 5.2-3.6 5.2-.4 5.1 1.1 5.2.3 5.2-5.2 5.2 3.8 5.2-2.9 5.1-4 5.2-4.1 5.2-4.3 5.2 2.6 5.2-9.2 5.2 2.9 5.1 1.7 5.2 8 5.2-1.9 5.2 11.8 5.2-1.3 5.1 1.2 5.2-1.2 5.2 6.3 5.2 1.8 5.2.4 5.2-3.2 5.1 2.8 5.2 3.7 5.2-.5 5.2-3.2 5.2-7.1 5.1 3.1 5.2-2.3 5.2 4.3 5.2-5 5.2-.6 5.2-7.9 5.1 2.6 5.2.1 5.2-7 5.2 7.8 5.2-1 5.1 3 5.2-6.7 5.2-2.5 5.2 1.8 5.2.8 5.2-5.3 5.1-2.5 5.2-3.7 5.2 1.8 5.2-2.9 5.2-.8 5.1 1.3 5.2 2.6 5.2 3.7 5.2 2.3 5.2-15.9 5.2 27.3 5.1-14.3 5.2-2.9 5.2-10.9" style="stroke-width: 1.07; stroke: #FF0000; stroke-linecap: butt;"/><path d="m25.9 384.3 5.2-1.9 5.2-1.4 5.2-2.1 5.1 3.5 5.2 1.3 5.2-1.2 5.2 5.9 5.2 8.1 5.2 5.5 5.1-2.9 5.2-6.1 5.2-5.4 5.2-4.8 5.2-1.6 5.1-2.1 5.2-1.3 5.2-1 5.2-3.5 5.2-5.6 5.2 1 5.1-8.1 5.2-.4 5.2 1.4 5.2 2 5.2-.3 5.1-3.5 5.2 1.3 5.2-4.1 5.2-6.2 5.2 2 5.2-1.8 5.1-9.7 5.2-3.1 5.2-.3 5.2-5.4 5.2 5 5.1-1 5.2-1.7 5.2-.5 5.2-.9 5.2-6.7 5.2-4.9 5.1 3.9 5.2-1.4h5.2l5.2-.7 5.2-1.8 5.1-12.1 5.2 1.4 5.2 2.6 5.2 1.3 5.2-2.6 5.2-2.1 5.1-1.1 5.2 2.4 5.2-7.6 5.2-1.8 5.2-13.3 5.1-8.8 5.2-.8 5.2-7.7 5.2 1.4 5.2 2 5.2 6.4 5.1-1.9 5.2 5.9 5.2 17.7 5.2-2.7 5.2 14 5.1-5.8 5.2-5.8 5.2-8.2 5.2 1.2 5.2-7.3 5.2 5.3 5.1 2.7h5.2l5.2 4.1 5.2 7.5 5.2-17.7 5.1-16.1 5.2 14.7 5.2-10.1 5.2-5.2 5.2-9.2 5.2 9.8 5.1 6.3 5.2 1.1 5.2 4.9 5.2 2.9 5.2-2 5.1 12 5.2-2.2 5.2 6.7 5.2 4.3 5.2-7.3 5.2 12 5.1 4.7 5.2 8.3 5.2 2.7" style="stroke-width: 1.07; stroke: #00F000; stroke-linecap: butt;"/><path d="m25.9 257.7 5.2-9.7 5.2 11 5.2 83.3 5.1-92.6 5.2 10.8 5.2-10.1 5.2 7.5 5.2 12.9 5.2 7.5 5.1 1.9 5.2-12.8 5.2-1.6 5.2-9.4 5.2-5.2 5.1 8.7 5.2.3 5.2-9.5 5.2 1 5.2 3.5 5.2 1.9 5.1.9 5.2 15.2 5.2-3.8 5.2-7.4 5.2-6.4 5.1-.8 5.2 3.7 5.2-16.2 5.2 6.9 5.2-3.4 5.2-4 5.1-8.1 5.2 1.9 5.2 2.5 5.2 6.5 5.2 4.7 5.1-12.5 5.2-.3h5.2l5.2-2.3 5.2-.1 5.2-3.7 5.1 2.7 5.2 10.3 5.2-4 5.2-6.8 5.2-7.6 5.1-1.8 5.2 5.1 5.2-3.6 5.2 14.7 5.2 4.8 5.2 1.6 5.1-2.1 5.2-.2 5.2-13.5 5.2 22.7 5.2 6.5 5.1 4.2 5.2 1 5.2 6 5.2-9.9 5.2-2.5 5.2-.6 5.1.9 5.2-3.3 5.2-6.2 5.2-1.9 5.2 5.8 5.1 5.3 5.2 2.3 5.2 3.1 5.2-6.3 5.2 8.4 5.2-1.3 5.1 2.9 5.2-1.7 5.2-2.2 5.2 6.5 5.2-2.8 5.1.5 5.2 2.3 5.2 2.1 5.2 4 5.2 6 5.2 17 5.1-4.3 5.2 14.1 5.2-4.3 5.2 3.9 5.2 12.6 5.1 5.9 5.2 7.7 5.2 4.3 5.2 2.9 5.2 4.9 5.2 11.4 5.1-4.7 5.2 9.4 5.2 3.1" style="stroke-width: 1.07; stroke: #00FF00; stroke-linecap: butt;"/><path d="m25.9 113.8 5.2 39.7 5.2-6 5.2-20.8 5.1 12 5.2 9.8 5.2-17.8 5.2 39 5.2 44.4 5.2 38 5.1-12.9 5.2-12.2 5.2-7.2 5.2-32.4 5.2-10.3 5.1 44 5.2-21.5 5.2-28 5.2-21.8 5.2-18.8 5.2-6.2 5.1-20.1 5.2 16.7 5.2 18.6 5.2-26.8 5.2-8.3 5.1 60.2 5.2-32 5.2-4.9 5.2 12.9 5.2-2.8 5.2 19.3 5.1-23.3 5.2-10.1 5.2 7.9 5.2 14.8 5.2-4.2 5.1-1.7 5.2 6.5 5.2-5.8 5.2-8.4 5.2-8.9 5.2-8.6 5.1-12.3 5.2-8.7 5.2-8.8 5.2-14.2 5.2-23.8 5.1 2.7 5.2-14.3 5.2-14.9 5.2 18.7 5.2 16.5 5.2-20 5.1-8.3 5.2-.5 5.2-1.6 5.2 21 5.2 14.3 5.1 23.6 5.2 5.2 5.2-15.2 5.2 4.4 5.2 2.6 5.2-9.5 5.1-14 5.2-2.8 5.2 5.1 5.2 9.1 5.2-3.7 5.1-2.8 5.2-2.5 5.2-.4 5.2-9.6 5.2-1.4 5.2.7 5.1-1.1 5.2-10.3 5.2 11 5.2 1.3 5.2-.3 5.1-2.8 5.2 2.7 5.2 9.2 5.2-1 5.2 17.7 5.2 30.9 5.1-9 5.2 11.7 5.2 15.5 5.2-5.1 5.2.1 5.1 12.1 5.2 10.2 5.2 5.2 5.2-7 5.2 9.1 5.2 32.7 5.1-17.5 5.2-1.5 5.2 11.1" style="stroke-width: 1.07; stroke: #0000F0; stroke-linecap: butt;"/></g></svg>