<svg xmlns="http://www.w3.org/2000/svg" width="760" height="630.7" class="svglite" viewBox="0 0 570 473"><defs><style><![CDATA[
    .svglite line, .svglite polyline, .svglite polygon, .svglite path, .svglite rect, .svglite circle {
      fill: none;
      stroke: #000000;
      stroke-linecap: round;
      stroke-linejoin: round;
      stroke-miterlimit: 10.00;
    }
    .svglite text {
      white-space: pre;
    }
  ]]></style></defs><rect width="100%" height="100%" style="stroke: none; fill: none;"/><defs><clipPath id="cpMC4wMHw1NzAuMDB8MC4wMHw0NzMuMDA="><path d="M0 0h570v473H0z"/></clipPath></defs><g clip-path="url(#cpMC4wMHw1NzAuMDB8MC4wMHw0NzMuMDA=)"><circle cx="273.5" cy="75.3" r="3" style="stroke-width: 0.71; stroke: #FF0000; fill: #FF0000;"/><circle cx="62.5" cy="279.8" r="1.9" style="stroke-width: 0.71; stroke: #00F000; fill: #00F000;"/><circle cx="115.4" cy="183.4" r="3.1" style="stroke-width: 0.71; stroke: #F00000; fill: #F00000;"/><circle cx="47.2" cy="288.1" r="1.5" style="stroke-width: 0.71; stroke: #00F000; fill: #00F000;"/><circle cx="310.5" cy="67.8" r="3" style="stroke-width: 0.71; stroke: #F00000; fill: #F00000;"/><circle cx="45.3" cy="276.6" r="1.4" style="stroke-width: 0.71; stroke: #00FF00; fill: #00FF00;"/><circle cx="61.8" cy="257.4" r="1.5" style="stroke-width: 0.71; stroke: #00FF00; fill: #00FF00;"/><circle cx="66.1" cy="268.9" r="3.1" style="stroke-width: 0.71; stroke: #0000F0; fill: #0000F0;"/><circle cx="64" cy="276.1" r="1.9" style="stroke-width: 0.71; stroke: #FF0000; fill: #FF0000;"/><circle cx="84.3" cy="294.8" r="1.5" style="stroke-width: 0.71; stroke: #00FF00; fill: #00FF00;"/><circle cx="35.4" cy="307" r="2.2" style="stroke-width: 0.71; stroke: #00F000; fill: #00F000;"/><circle cx="98.7" cy="253" r="2.2" style="stroke-width: 0.71; stroke: #FF0000; fill: #FF0000;"/><circle cx="77" cy="278.1" r="1.6" style="stroke-width: 0.71; stroke: #00FF00; fill: #00FF00;"/><circle cx="48.2" cy="217.4" r="1.7" style="stroke-width: 0.71; stroke: #FF0000; fill: #FF0000;"/><circle cx="144.2" cy="180.8" r="4.7" style="stroke-width: 0.71; stroke: #FF0000; fill: #FF0000;"/><circle cx="67" cy="289.8" r="1.6" style="stroke-width: 0.71; stroke: #00FF00; fill: #00FF00;"/><circle cx="30.5" cy="339.6" r="2.2" style="stroke-width: 0.71; stroke: #00F000; fill: #00F000;"/><circle cx="37.1" cy="301.5" r="2.3" style="stroke-width: 0.71; stroke: #00F000; fill: #00F000;"/><circle cx="66.5" cy="197.3" r="1.6" style="stroke-width: 0.71; stroke: #00FF00; fill: #00FF00;"/><circle cx="375.1" cy="108.9" r="2.4" style="stroke-width: 0.71; stroke: #F00000; fill: #F00000;"/><circle cx="30.2" cy="299.9" r="1.5" style="stroke-width: 0.71; stroke: #00FF00; fill: #00FF00;"/><circle cx="122.1" cy="245.6" r="1.6" style="stroke-width: 0.71; stroke: #FF0000; fill: #FF0000;"/><circle cx="206.8" cy="190.1" r="2.3" style="stroke-width: 0.71; stroke: #0000F0; fill: #0000F0;"/><circle cx="77.2" cy="288.5" r="1.5" style="stroke-width: 0.71; stroke: #00FF00; fill: #00FF00;"/><circle cx="46.5" cy="336.3" r="1.9" style="stroke-width: 0.71; stroke: #00F000; fill: #00F000;"/><circle cx="189.7" cy="153.9" r="1.8" style="stroke-width: 0.71; stroke: #F00000; fill: #F00000;"/><circle cx="81.8" cy="255.2" r="5.1" style="stroke-width: 0.71; stroke: #0000F0; fill: #0000F0;"/><circle cx="76.8" cy="276.5" r="1.5" style="stroke-width: 0.71; stroke: #00FF00; fill: #00FF00;"/><circle cx="63.3" cy="232.3" r="1.6" style="stroke-width: 0.71; stroke: #FF0000; fill: #FF0000;"/><circle cx="45.1" cy="337.7" r="2.1" style="stroke-width: 0.71; stroke: #00F000; fill: #00F000;"/><circle cx="368.4" cy="119.3" r="2.6" style="stroke-width: 0.71; stroke: #F00000; fill: #F00000;"/><circle cx="240" cy="95.2" r="2.4" style="stroke-width: 0.71; stroke: #F00000; fill: #F00000;"/><circle cx="123" cy="188" r="2.5" style="stroke-width: 0.71; stroke: #FF0000; fill: #FF0000;"/><circle cx="325.3" cy="97.8" r="2.8" style="stroke-width: 0.71; stroke: #F00000; fill: #F00000;"/><circle cx="41.6" cy="285.5" r="3" style="stroke-width: 0.71; stroke: #00FF00; fill: #00FF00;"/><circle cx="72.8" cy="240.3" r="1.6" style="stroke-width: 0.71; stroke: #F00000; fill: #F00000;"/><circle cx="26.7" cy="242" r="1.5" style="stroke-width: 0.71; stroke: #00FF00; fill: #00FF00;"/><circle cx="446.9" cy="21.5" r="2" style="stroke-width: 0.71; stroke: #F00000; fill: #F00000;"/><circle cx="470.3" cy="62.6" r="2.5" style="stroke-width: 0.71; stroke: #F00000; fill: #F00000;"/><circle cx="42.4" cy="275.7" r="2.5" style="stroke-width: 0.71; stroke: #0000F0; fill: #0000F0;"/><circle cx="52.1" cy="308.3" r="11" style="stroke-width: 0.71; stroke: #FF0000; fill: #FF0000;"/><circle cx="73.6" cy="234.3" r="3.3" style="stroke-width: 0.71; stroke: #0000F0; fill: #0000F0;"/><circle cx="230.1" cy="135.7" r="1.6" style="stroke-width: 0.71; stroke: #F00000; fill: #F00000;"/><circle cx="199.9" cy="114.4" r="2" style="stroke-width: 0.71; stroke: #F00000; fill: #F00000;"/><circle cx="53.9" cy="259.1" r="2" style="stroke-width: 0.71; stroke: #00FF00; fill: #00FF00;"/><circle cx="323.9" cy="114.5" r="2.8" style="stroke-width: 0.71; stroke: #F00000; fill: #F00000;"/><circle cx="37.5" cy="338.6" r="1.9" style="stroke-width: 0.71; stroke: #00F000; fill: #00F000;"/><circle cx="45.5" cy="304.5" r="2.3" style="stroke-width: 0.71; stroke: #00FF00; fill: #00FF00;"/><circle cx="65.8" cy="311.8" r="1.5" style="stroke-width: 0.71; stroke: #00FF00; fill: #00FF00;"/><circle cx="35.7" cy="266.4" r="1.7" style="stroke-width: 0.71; stroke: #00F000; fill: #00F000;"/><circle cx="31.8" cy="308.7" r="2.3" style="stroke-width: 0.71; stroke: #00F000; fill: #00F000;"/><circle cx="351.4" cy="52.2" r="4" style="stroke-width: 0.71; stroke: #F00000; fill: #F00000;"/><circle cx="35" cy="293.3" r="2" style="stroke-width: 0.71; stroke: #00F000; fill: #00F000;"/><circle cx="246.9" cy="195.7" r="1.7" style="stroke-width: 0.71; stroke: #F00000; fill: #F00000;"/><circle cx="167.5" cy="306.3" r="1.5" style="stroke-width: 0.71; stroke: #00FF00; fill: #00FF00;"/><circle cx="162.7" cy="207.8" r="2.3" style="stroke-width: 0.71; stroke: #00FF00; fill: #00FF00;"/><circle cx="230.5" cy="184.7" r="1.7" style="stroke-width: 0.71; stroke: #FF0000; fill: #FF0000;"/><circle cx="72.7" cy="220.9" r="2.5" style="stroke-width: 0.71; stroke: #0000F0; fill: #0000F0;"/><circle cx="99.6" cy="179.3" r="4.1" style="stroke-width: 0.71; stroke: #F00000; fill: #F00000;"/><circle cx="71.3" cy="233.2" r="2.1" style="stroke-width: 0.71; stroke: #00FF00; fill: #00FF00;"/><circle cx="339" cy="133.7" r="1.8" style="stroke-width: 0.71; stroke: #F00000; fill: #F00000;"/><circle cx="179.2" cy="128" r="1.9" style="stroke-width: 0.71; stroke: #F00000; fill: #F00000;"/><circle cx="28.8" cy="324.4" r="1.7" style="stroke-width: 0.71; stroke: #00F000; fill: #00F000;"/><circle cx="243.6" cy="173.2" r="1.7" style="stroke-width: 0.71; stroke: #F00000; fill: #F00000;"/><circle cx="221.3" cy="102.6" r="4.3" style="stroke-width: 0.71; stroke: #F00000; fill: #F00000;"/><circle cx="67.6" cy="268.4" r="1.4" style="stroke-width: 0.71; stroke: #0000F0; fill: #0000F0;"/><circle cx="54.4" cy="276.9" r="1.5" style="stroke-width: 0.71; stroke: #00F000; fill: #00F000;"/><circle cx="31" cy="315.5" r="2" style="stroke-width: 0.71; stroke: #00F000; fill: #00F000;"/><circle cx="38.2" cy="291.4" r="3.5" style="stroke-width: 0.71; stroke: #00F000; fill: #00F000;"/><circle cx="69.8" cy="143.1" r="1.6" style="stroke-width: 0.71; stroke: #0000F0; fill: #0000F0;"/><circle cx="188.6" cy="136.1" r="1.8" style="stroke-width: 0.71; stroke: #F00000; fill: #F00000;"/><circle cx="218.7" cy="115.9" r="1.8" style="stroke-width: 0.71; stroke: #F00000; fill: #F00000;"/><circle cx="61.4" cy="296.5" r="1.9" style="stroke-width: 0.71; stroke: #FF0000; fill: #FF0000;"/><circle cx="35.4" cy="321.4" r="3.8" style="stroke-width: 0.71; stroke: #00F000; fill: #00F000;"/><circle cx="204.9" cy="151.8" r="2.9" style="stroke-width: 0.71; stroke: #F00000; fill: #F00000;"/><circle cx="67.1" cy="252.9" r="1.5" style="stroke-width: 0.71; stroke: #00F000; fill: #00F000;"/><circle cx="36.9" cy="332.3" r="2.2" style="stroke-width: 0.71; stroke: #00F000; fill: #00F000;"/><circle cx="72.4" cy="262.5" r="1.5" style="stroke-width: 0.71; stroke: #00FF00; fill: #00FF00;"/><circle cx="92.3" cy="272.9" r="1.5" style="stroke-width: 0.71; stroke: #00FF00; fill: #00FF00;"/><circle cx="61.1" cy="280.7" r="1.6" style="stroke-width: 0.71; stroke: #00FF00; fill: #00FF00;"/><circle cx="116.6" cy="176.1" r="2.5" style="stroke-width: 0.71; stroke: #00FF00; fill: #00FF00;"/><circle cx="50" cy="302.5" r="1.5" style="stroke-width: 0.71; stroke: #00F000; fill: #00F000;"/><circle cx="440.7" cy="111.6" r="2.4" style="stroke-width: 0.71; stroke: #F00000; fill: #F00000;"/><circle cx="333.4" cy="124.4" r="1.8" style="stroke-width: 0.71; stroke: #F00000; fill: #F00000;"/><circle cx="135.7" cy="198.3" r="1.6" style="stroke-width: 0.71; stroke: #0000F0; fill: #0000F0;"/><circle cx="271" cy="187.8" r="2.3" style="stroke-width: 0.71; stroke: #00FF00; fill: #00FF00;"/><circle cx="89.4" cy="165" r="2.3" style="stroke-width: 0.71; stroke: #00FF00; fill: #00FF00;"/><circle cx="27.7" cy="309.7" r="2.1" style="stroke-width: 0.71; stroke: #FF0000; fill: #FF0000;"/><circle cx="37" cy="326.4" r="2.2" style="stroke-width: 0.71; stroke: #00F000; fill: #00F000;"/><circle cx="26.7" cy="260.9" r="1.6" style="stroke-width: 0.71; stroke: #00F000; fill: #00F000;"/><circle cx="144.5" cy="223.6" r="11" style="stroke-width: 0.71; stroke: #FF0000; fill: #FF0000;"/><circle cx="112.4" cy="231.9" r="5.7" style="stroke-width: 0.71; stroke: #FF0000; fill: #FF0000;"/><circle cx="72.2" cy="232.9" r="3.8" style="stroke-width: 0.71; stroke: #FF0000; fill: #FF0000;"/><circle cx="122.9" cy="134.7" r="3.1" style="stroke-width: 0.71; stroke: #FF0000; fill: #FF0000;"/><circle cx="34.4" cy="268.8" r="2" style="stroke-width: 0.71; stroke: #00F000; fill: #00F000;"/><circle cx="80.7" cy="309.7" r="1.5" style="stroke-width: 0.71; stroke: #00F000; fill: #00F000;"/><circle cx="37.4" cy="197.5" r="2.2" style="stroke-width: 0.71; stroke: #FF0000; fill: #FF0000;"/><circle cx="31.6" cy="328.5" r="3.4" style="stroke-width: 0.71; stroke: #00F000; fill: #00F000;"/><circle cx="107.4" cy="267.8" r="1.9" style="stroke-width: 0.71; stroke: #00FF00; fill: #00FF00;"/><circle cx="29.8" cy="339.8" r="4.3" style="stroke-width: 0.71; stroke: #FF0000; fill: #FF0000;"/><circle cx="64.6" cy="315" r="1.5" style="stroke-width: 0.71; stroke: #00F000; fill: #00F000;"/><circle cx="81.5" cy="164.4" r="2.3" style="stroke-width: 0.71; stroke: #FF0000; fill: #FF0000;"/><circle cx="62.6" cy="194.9" r="2.6" style="stroke-width: 0.71; stroke: #FF0000; fill: #FF0000;"/><circle cx="205" cy="147.2" r="3.3" style="stroke-width: 0.71; stroke: #F00000; fill: #F00000;"/><circle cx="60.4" cy="248.2" r="1.8" style="stroke-width: 0.71; stroke: #00F000; fill: #00F000;"/><circle cx="58.1" cy="231.8" r="2" style="stroke-width: 0.71; stroke: #FF0000; fill: #FF0000;"/><circle cx="96.4" cy="180.7" r="2.1" style="stroke-width: 0.71; stroke: #FF0000; fill: #FF0000;"/><circle cx="195.6" cy="182.9" r="2.1" style="stroke-width: 0.71; stroke: #FF0000; fill: #FF0000;"/><circle cx="36" cy="346.3" r="1.8" style="stroke-width: 0.71; stroke: #00F000; fill: #00F000;"/><circle cx="103.4" cy="218.8" r="2" style="stroke-width: 0.71; stroke: #FF0000; fill: #FF0000;"/><circle cx="343.5" cy="194.6" r="1.8" style="stroke-width: 0.71; stroke: #F00000; fill: #F00000;"/><circle cx="341.4" cy="125.1" r="2" style="stroke-width: 0.71; stroke: #F00000; fill: #F00000;"/><circle cx="166.7" cy="217.4" r="2.1" style="stroke-width: 0.71; stroke: #F00000; fill: #F00000;"/><circle cx="49" cy="280.7" r="1.5" style="stroke-width: 0.71; stroke: #00F000; fill: #00F000;"/><circle cx="34.2" cy="344.3" r="1.9" style="stroke-width: 0.71; stroke: #00F000; fill: #00F000;"/><circle cx="50.1" cy="268.4" r="1.6" style="stroke-width: 0.71; stroke: #00F000; fill: #00F000;"/><circle cx="33.3" cy="282.6" r="1.6" style="stroke-width: 0.71; stroke: #FF0000; fill: #FF0000;"/><circle cx="316.2" cy="112.7" r="2.8" style="stroke-width: 0.71; stroke: #F00000; fill: #F00000;"/><circle cx="197.1" cy="102" r="2.6" style="stroke-width: 0.71; stroke: #F00000; fill: #F00000;"/><circle cx="54.8" cy="240.4" r="2.9" style="stroke-width: 0.71; stroke: #FF0000; fill: #FF0000;"/><circle cx="43.2" cy="229.9" r="1.6" style="stroke-width: 0.71; stroke: #FF0000; fill: #FF0000;"/><circle cx="434.2" cy="62.3" r="2.7" style="stroke-width: 0.71; stroke: #F00000; fill: #F00000;"/><circle cx="54.6" cy="290" r="1.6" style="stroke-width: 0.71; stroke: #00F000; fill: #00F000;"/><circle cx="59.6" cy="289.1" r="1.6" style="stroke-width: 0.71; stroke: #00FF00; fill: #00FF00;"/><circle cx="191.4" cy="80.8" r="2" style="stroke-width: 0.71; stroke: #F00000; fill: #F00000;"/><circle cx="84" cy="290" r="1.7" style="stroke-width: 0.71; stroke: #F00000; fill: #F00000;"/><circle cx="70.6" cy="52.8" r="1.6" style="stroke-width: 0.71; stroke: #F00000; fill: #F00000;"/><circle cx="75.8" cy="223.5" r="4.3" style="stroke-width: 0.71; stroke: #00FF00; fill: #00FF00;"/><circle cx="82.4" cy="314.9" r="1.9" style="stroke-width: 0.71; stroke: #00F000; fill: #00F000;"/><circle cx="40.3" cy="378.9" r="1.5" style="stroke-width: 0.71; stroke: #00F000; fill: #00F000;"/><circle cx="77.4" cy="197.9" r="1.9" style="stroke-width: 0.71; stroke: #FF0000; fill: #FF0000;"/><circle cx="34.7" cy="296.6" r="1.6" style="stroke-width: 0.71; stroke: #00F000; fill: #00F000;"/><circle cx="48.5" cy="329" r="1.4" style="stroke-width: 0.71; stroke: #00FF00; fill: #00FF00;"/><circle cx="96.2" cy="212.3" r="3" style="stroke-width: 0.71; stroke: #F00000; fill: #F00000;"/><circle cx="310.4" cy="69.1" r="2.9" style="stroke-width: 0.71; stroke: #F00000; fill: #F00000;"/><circle cx="197.5" cy="238.3" r="3.3" style="stroke-width: 0.71; stroke: #FF0000; fill: #FF0000;"/><circle cx="186.3" cy="148.5" r="1.9" style="stroke-width: 0.71; stroke: #F00000; fill: #F00000;"/><circle cx="138.2" cy="202.4" r="2.8" style="stroke-width: 0.71; stroke: #FF0000; fill: #FF0000;"/><circle cx="37.3" cy="293.3" r="2.5" style="stroke-width: 0.71; stroke: #00F000; fill: #00F000;"/><circle cx="86.1" cy="184.8" r="2.1" style="stroke-width: 0.71; stroke: #00FF00; fill: #00FF00;"/><circle cx="544.1" cy="50.3" r="2.7" style="stroke-width: 0.71; stroke: #F00000; fill: #F00000;"/><circle cx="490.6" cy="137.5" r="5.2" style="stroke-width: 0.71; stroke: #F00000; fill: #F00000;"/><circle cx="101.2" cy="269.9" r="2.7" style="stroke-width: 0.71; stroke: #FF0000; fill: #FF0000;"/><circle cx="45.4" cy="305.9" r="1.8" style="stroke-width: 0.71; stroke: #00F000; fill: #00F000;"/><circle cx="30.3" cy="284" r="2" style="stroke-width: 0.71; stroke: #00F000; fill: #00F000;"/><circle cx="66.5" cy="183.7" r="2" style="stroke-width: 0.71; stroke: #FF0000; fill: #FF0000;"/><circle cx="287.4" cy="136.5" r="5.4" style="stroke-width: 0.71; stroke: #FF0000; fill: #FF0000;"/><circle cx="137.4" cy="147.4" r="2" style="stroke-width: 0.71; stroke: #FF0000; fill: #FF0000;"/><circle cx="92.5" cy="210.9" r="2" style="stroke-width: 0.71; stroke: #00FF00; fill: #00FF00;"/><circle cx="95.7" cy="188.6" r="2.1" style="stroke-width: 0.71; stroke: #0000F0; fill: #0000F0;"/><circle cx="86.3" cy="216.8" r="2.9" style="stroke-width: 0.71; stroke: #0000F0; fill: #0000F0;"/><circle cx="144.9" cy="221.8" r="4.1" style="stroke-width: 0.71; stroke: #FF0000; fill: #FF0000;"/><circle cx="36.3" cy="311.9" r="3" style="stroke-width: 0.71; stroke: #00F000; fill: #00F000;"/><circle cx="34.1" cy="314.6" r="2.2" style="stroke-width: 0.71; stroke: #00F000; fill: #00F000;"/><circle cx="46.7" cy="329.9" r="1.9" style="stroke-width: 0.71; stroke: #00FF00; fill: #00FF00;"/><circle cx="42" cy="227.7" r="1.9" style="stroke-width: 0.71; stroke: #FF0000; fill: #FF0000;"/><circle cx="48.7" cy="233.2" r="1.7" style="stroke-width: 0.71; stroke: #F00000; fill: #F00000;"/><circle cx="46.3" cy="322.3" r="2.5" style="stroke-width: 0.71; stroke: #00F000; fill: #00F000;"/><circle cx="39.7" cy="319.1" r="4.5" style="stroke-width: 0.71; stroke: #00F000; fill: #00F000;"/><circle cx="185.9" cy="128.6" r="2.4" style="stroke-width: 0.71; stroke: #F00000; fill: #F00000;"/><circle cx="47.1" cy="305.3" r="1.4" style="stroke-width: 0.71; stroke: #00FF00; fill: #00FF00;"/><circle cx="83.2" cy="363.9" r="1.4" style="stroke-width: 0.71; stroke: #F00000; fill: #F00000;"/><circle cx="87" cy="280.8" r="1.5" style="stroke-width: 0.71; stroke: #00FF00; fill: #00FF00;"/><circle cx="97.2" cy="274.4" r="1.5" style="stroke-width: 0.71; stroke: #00FF00; fill: #00FF00;"/><circle cx="63.1" cy="236.5" r="1.5" style="stroke-width: 0.71; stroke: #00FF00; fill: #00FF00;"/><circle cx="63.9" cy="361.5" r="1.4" style="stroke-width: 0.71; stroke: #00FF00; fill: #00FF00;"/><circle cx="86.3" cy="289.1" r="1.5" style="stroke-width: 0.71; stroke: #00FF00; fill: #00FF00;"/><circle cx="25.9" cy="309.2" r="1.5" style="stroke-width: 0.71; stroke: #00F000; fill: #00F000;"/><circle cx="81.4" cy="127.2" r="1.5" style="stroke-width: 0.71; stroke: #F00000; fill: #F00000;"/><circle cx="47.6" cy="190.1" r="2.9" style="stroke-width: 0.71; stroke: #FF0000; fill: #FF0000;"/><circle cx="180.4" cy="118.1" r="2.5" style="stroke-width: 0.71; stroke: #F00000; fill: #F00000;"/><circle cx="42" cy="331" r="2.1" style="stroke-width: 0.71; stroke: #00F000; fill: #00F000;"/><circle cx="84.4" cy="254" r="1.5" style="stroke-width: 0.71; stroke: #F00000; fill: #F00000;"/><circle cx="459" cy="129.3" r="2.2" style="stroke-width: 0.71; stroke: #F00000; fill: #F00000;"/><circle cx="29.6" cy="268.8" r="2" style="stroke-width: 0.71; stroke: #FF0000; fill: #FF0000;"/><circle cx="86.9" cy="286.5" r="1.5" style="stroke-width: 0.71; stroke: #00FF00; fill: #00FF00;"/><circle cx="44.5" cy="296.4" r="2" style="stroke-width: 0.71; stroke: #00F000; fill: #00F000;"/><circle cx="29.6" cy="306.7" r="1.8" style="stroke-width: 0.71; stroke: #00F000; fill: #00F000;"/><circle cx="486.1" cy="49.6" r="2.5" style="stroke-width: 0.71; stroke: #F00000; fill: #F00000;"/><circle cx="188.5" cy="223.6" r="3.4" style="stroke-width: 0.71; stroke: #F00000; fill: #F00000;"/><circle cx="32" cy="309.5" r="3.2" style="stroke-width: 0.71; stroke: #FF0000; fill: #FF0000;"/><circle cx="467.7" cy="153.9" r="2.3" style="stroke-width: 0.71; stroke: #F00000; fill: #F00000;"/><circle cx="32.6" cy="310.9" r="3.2" style="stroke-width: 0.71; stroke: #00F000; fill: #00F000;"/><circle cx="48" cy="242" r="2.6" style="stroke-width: 0.71; stroke: #FF0000; fill: #FF0000;"/><circle cx="247" cy="93.3" r="3.2" style="stroke-width: 0.71; stroke: #F00000; fill: #F00000;"/><circle cx="92.3" cy="215.4" r="1.6" style="stroke-width: 0.71; stroke: #0000F0; fill: #0000F0;"/><circle cx="30.2" cy="291.1" r="2.2" style="stroke-width: 0.71; stroke: #00F000; fill: #00F000;"/><circle cx="35.9" cy="285.7" r="2.2" style="stroke-width: 0.71; stroke: #00F000; fill: #00F000;"/><circle cx="123.9" cy="168" r="2.6" style="stroke-width: 0.71; stroke: #FF0000; fill: #FF0000;"/><circle cx="38.5" cy="317" r="2.6" style="stroke-width: 0.71; stroke: #FF0000; fill: #FF0000;"/><circle cx="154.6" cy="135" r="2.2" style="stroke-width: 0.71; stroke: #FF0000; fill: #FF0000;"/><circle cx="195.8" cy="76.9" r="3.5" style="stroke-width: 0.71; stroke: #F00000; fill: #F00000;"/><circle cx="56.2" cy="298.6" r="3.6" style="stroke-width: 0.71; stroke: #FF0000; fill: #FF0000;"/><circle cx="283.9" cy="121" r="2.2" style="stroke-width: 0.71; stroke: #F00000; fill: #F00000;"/><circle cx="91.9" cy="276.6" r="1.7" style="stroke-width: 0.71; stroke: #00FF00; fill: #00FF00;"/><circle cx="68" cy="237.3" r="2.3" style="stroke-width: 0.71; stroke: #F00000; fill: #F00000;"/><circle cx="78.8" cy="249.9" r="3.8" style="stroke-width: 0.71; stroke: #FF0000; fill: #FF0000;"/><circle cx="198.2" cy="176.2" r="2.1" style="stroke-width: 0.71; stroke: #FF0000; fill: #FF0000;"/><circle cx="45.9" cy="269.3" r="1.5" style="stroke-width: 0.71; stroke: #00FF00; fill: #00FF00;"/><circle cx="195.7" cy="70" r="3.2" style="stroke-width: 0.71; stroke: #F00000; fill: #F00000;"/><circle cx="51.1" cy="349.3" r="3" style="stroke-width: 0.71; stroke: #00F000; fill: #00F000;"/><circle cx="46.6" cy="228.7" r="2.3" style="stroke-width: 0.71; stroke: #FF0000; fill: #FF0000;"/><circle cx="38.8" cy="290.2" r="3.5" style="stroke-width: 0.71; stroke: #00F000; fill: #00F000;"/><circle cx="47.4" cy="279.3" r="6.1" style="stroke-width: 0.71; stroke: #00FF00; fill: #00FF00;"/><circle cx="45.6" cy="325.1" r="1.5" style="stroke-width: 0.71; stroke: #00FF00; fill: #00FF00;"/><circle cx="50.1" cy="293.3" r="1.9" style="stroke-width: 0.71; stroke: #0000F0; fill: #0000F0;"/><circle cx="81" cy="144.5" r="2.9" style="stroke-width: 0.71; stroke: #FF0000; fill: #FF0000;"/><circle cx="51.2" cy="451.5" r="1.4" style="stroke-width: 0.71; stroke: #00F000; fill: #00F000;"/><circle cx="104.7" cy="238.4" r="2.8" style="stroke-width: 0.71; stroke: #0000F0; fill: #0000F0;"/><circle cx="111" cy="240.4" r="4" style="stroke-width: 0.71; stroke: #FF0000; fill: #FF0000;"/><circle cx="147.1" cy="226.4" r="1.6" style="stroke-width: 0.71; stroke: #F00000; fill: #F00000;"/><circle cx="199.6" cy="69.6" r="3" style="stroke-width: 0.71; stroke: #FF0000; fill: #FF0000;"/><circle cx="254.8" cy="88.3" r="2.6" style="stroke-width: 0.71; stroke: #F00000; fill: #F00000;"/><circle cx="226.3" cy="125.8" r="2.4" style="stroke-width: 0.71; stroke: #F00000; fill: #F00000;"/></g></svg>